# Blender v2.78 (sub 0) OBJ File: ''
# www.blender.org
mtllib cone.mtl
o Cone.001
v 0.000000 -0.044444 -1.000000
v 0.000000 1.955556 0.000000
v 0.281733 -0.044444 -0.959493
v 0.540641 -0.044444 -0.841254
v 0.755750 -0.044444 -0.654861
v 0.909632 -0.044444 -0.415415
v 0.989821 -0.044444 -0.142315
v 0.989821 -0.044444 0.142315
v 0.909632 -0.044444 0.415415
v 0.755749 -0.044444 0.654861
v 0.540641 -0.044444 0.841254
v 0.281733 -0.044444 0.959493
v 0.000000 -0.044444 1.000000
v -0.281732 -0.044444 0.959493
v -0.540641 -0.044444 0.841254
v -0.755749 -0.044444 0.654861
v -0.909632 -0.044444 0.415416
v -0.989821 -0.044444 0.142316
v -0.989822 -0.044444 -0.142314
v -0.909632 -0.044444 -0.415414
v -0.755750 -0.044444 -0.654860
v -0.540642 -0.044444 -0.841253
v -0.281734 -0.044444 -0.959493
v 0.000000 -0.044444 -1.000000
v 0.281733 -0.044444 -0.959493
v 0.540641 -0.044444 -0.841254
v 0.755750 -0.044444 -0.654861
v 0.909632 -0.044444 -0.415415
v 0.989821 -0.044444 -0.142315
v 0.989821 -0.044444 0.142315
v 0.909632 -0.044444 0.415415
v 0.755749 -0.044444 0.654861
v 0.540641 -0.044444 0.841254
v 0.281733 -0.044444 0.959493
v 0.000000 -0.044444 1.000000
v -0.281732 -0.044444 0.959493
v -0.540641 -0.044444 0.841254
v -0.755749 -0.044444 0.654861
v -0.909632 -0.044444 0.415416
v -0.989821 -0.044444 0.142316
v -0.989822 -0.044444 -0.142314
v -0.909632 -0.044444 -0.415414
v -0.755750 -0.044444 -0.654860
v -0.540642 -0.044444 -0.841253
v -0.281734 -0.044444 -0.959493
vn 0.0000 0.4472 -0.8944
vn -0.0000 1.0000 -0.0000
vn 0.2520 0.4472 -0.8582
vn 0.4836 0.4472 -0.7524
vn 0.6760 0.4472 -0.5857
vn 0.8136 0.4472 -0.3716
vn 0.8853 0.4472 -0.1273
vn 0.8853 0.4472 0.1273
vn 0.8136 0.4472 0.3716
vn 0.6760 0.4472 0.5857
vn 0.4836 0.4472 0.7524
vn 0.2520 0.4472 0.8582
vn -0.0000 0.4472 0.8944
vn -0.2520 0.4472 0.8582
vn -0.4836 0.4472 0.7524
vn -0.6760 0.4472 0.5857
vn -0.8136 0.4472 0.3716
vn -0.8853 0.4472 0.1273
vn -0.8853 0.4472 -0.1273
vn -0.8136 0.4472 -0.3716
vn -0.6760 0.4472 -0.5857
vn -0.4836 0.4472 -0.7524
vn -0.2520 0.4472 -0.8582
vn -0.0000 -1.0000 -0.0000
usemtl None.002
s 1
f 1//1 2//2 3//3
f 3//3 2//2 4//4
f 4//4 2//2 5//5
f 5//5 2//2 6//6
f 6//6 2//2 7//7
f 7//7 2//2 8//8
f 8//8 2//2 9//9
f 9//9 2//2 10//10
f 10//10 2//2 11//11
f 11//11 2//2 12//12
f 12//12 2//2 13//13
f 13//13 2//2 14//14
f 14//14 2//2 15//15
f 15//15 2//2 16//16
f 16//16 2//2 17//17
f 17//17 2//2 18//18
f 18//18 2//2 19//19
f 19//19 2//2 20//20
f 20//20 2//2 21//21
f 21//21 2//2 22//22
f 22//22 2//2 23//23
f 23//23 2//2 1//1
f 24//24 25//24 26//24 27//24 28//24 29//24 30//24 31//24 32//24 33//24 34//24 35//24 36//24 37//24 38//24 39//24 40//24 41//24 42//24 43//24 44//24 45//24
