# Blender v2.78 (sub 0) OBJ File: ''
# www.blender.org
mtllib cylinder.mtl
o Cylinder.001
v 0.000000 -0.999999 -1.000000
v 0.000000 1.000001 -0.999999
v 0.195090 1.000001 -0.980784
v 0.195090 -0.999999 -0.980785
v 0.382683 1.000001 -0.923878
v 0.382683 -0.999999 -0.923879
v 0.555570 1.000001 -0.831469
v 0.555570 -0.999999 -0.831470
v 0.707107 1.000001 -0.707106
v 0.707107 -0.999999 -0.707107
v 0.831470 1.000001 -0.555569
v 0.831470 -0.999999 -0.555570
v 0.923879 1.000001 -0.382682
v 0.923879 -0.999999 -0.382683
v 0.980785 1.000001 -0.195089
v 0.980785 -0.999999 -0.195090
v 1.000000 1.000001 0.000001
v 1.000000 -0.999999 0.000000
v 0.980785 1.000001 0.195091
v 0.980785 -0.999999 0.195090
v 0.923879 1.000001 0.382684
v 0.923879 -0.999999 0.382683
v 0.831470 1.000001 0.555571
v 0.831470 -0.999999 0.555570
v 0.707107 1.000001 0.707107
v 0.707107 -0.999999 0.707107
v 0.555570 1.000001 0.831471
v 0.555570 -0.999999 0.831470
v 0.382683 1.000001 0.923881
v 0.382683 -1.000000 0.923880
v 0.195090 1.000001 0.980786
v 0.195090 -1.000000 0.980785
v 0.000000 1.000001 1.000000
v 0.000000 -1.000000 1.000000
v -0.195091 1.000001 0.980786
v -0.195091 -1.000000 0.980785
v -0.382684 1.000001 0.923880
v -0.382684 -1.000000 0.923879
v -0.555571 1.000001 0.831469
v -0.555571 -0.999999 0.831469
v -0.707107 1.000001 0.707107
v -0.707107 -0.999999 0.707106
v -0.831470 1.000001 0.555571
v -0.831470 -0.999999 0.555570
v -0.923880 1.000001 0.382684
v -0.923880 -0.999999 0.382683
v -0.980786 1.000001 0.195090
v -0.980786 -0.999999 0.195089
v -1.000000 1.000001 -0.000000
v -1.000000 -0.999999 -0.000001
v -0.980785 1.000001 -0.195090
v -0.980785 -0.999999 -0.195091
v -0.923879 1.000001 -0.382683
v -0.923879 -0.999999 -0.382684
v -0.831469 1.000001 -0.555570
v -0.831469 -0.999999 -0.555571
v -0.707106 1.000001 -0.707107
v -0.707106 -0.999999 -0.707108
v -0.555569 1.000001 -0.831469
v -0.555569 -0.999999 -0.831470
v -0.382682 1.000001 -0.923879
v -0.382682 -0.999999 -0.923880
v 0.195090 1.000001 -0.980784
v 0.000000 1.000001 -0.999999
v -0.195089 1.000001 -0.980785
v -0.382682 1.000001 -0.923879
v -0.555569 1.000001 -0.831469
v -0.707106 1.000001 -0.707107
v -0.831469 1.000001 -0.555570
v -0.923879 1.000001 -0.382683
v -0.980785 1.000001 -0.195090
v -1.000000 1.000001 -0.000000
v -0.980786 1.000001 0.195090
v -0.923880 1.000001 0.382684
v -0.831470 1.000001 0.555571
v -0.707107 1.000001 0.707107
v -0.555571 1.000001 0.831469
v -0.382684 1.000001 0.923880
v -0.195091 1.000001 0.980786
v 0.000000 1.000001 1.000000
v 0.195090 1.000001 0.980786
v 0.382683 1.000001 0.923881
v 0.555570 1.000001 0.831471
v 0.707107 1.000001 0.707107
v 0.831470 1.000001 0.555571
v 0.923879 1.000001 0.382684
v 0.980785 1.000001 0.195091
v 1.000000 1.000001 0.000001
v 0.980785 1.000001 -0.195089
v 0.923879 1.000001 -0.382682
v 0.831470 1.000001 -0.555569
v 0.707107 1.000001 -0.707106
v 0.555570 1.000001 -0.831469
v 0.382683 1.000001 -0.923878
v -0.195089 1.000001 -0.980785
v -0.195089 -0.999999 -0.980786
v 0.000000 -0.999999 -1.000000
v 0.195090 -0.999999 -0.980785
v 0.382683 -0.999999 -0.923879
v 0.555570 -0.999999 -0.831470
v 0.707107 -0.999999 -0.707107
v 0.831470 -0.999999 -0.555570
v 0.923879 -0.999999 -0.382683
v 0.980785 -0.999999 -0.195090
v 1.000000 -0.999999 0.000000
v 0.980785 -0.999999 0.195090
v 0.923879 -0.999999 0.382683
v 0.831470 -0.999999 0.555570
v 0.707107 -0.999999 0.707107
v 0.555570 -0.999999 0.831470
v 0.382683 -1.000000 0.923880
v 0.195090 -1.000000 0.980785
v 0.000000 -1.000000 1.000000
v -0.195091 -1.000000 0.980785
v -0.382684 -1.000000 0.923879
v -0.555571 -0.999999 0.831469
v -0.707107 -0.999999 0.707106
v -0.831470 -0.999999 0.555570
v -0.923880 -0.999999 0.382683
v -0.980786 -0.999999 0.195089
v -1.000000 -0.999999 -0.000001
v -0.980785 -0.999999 -0.195091
v -0.923879 -0.999999 -0.382684
v -0.831469 -0.999999 -0.555571
v -0.707106 -0.999999 -0.707108
v -0.555569 -0.999999 -0.831470
v -0.382682 -0.999999 -0.923880
v -0.195089 -0.999999 -0.980786
vn 0.0000 0.0000 -1.0000
vn 0.1951 0.0000 -0.9808
vn 0.3827 0.0000 -0.9239
vn 0.5556 0.0000 -0.8315
vn 0.7071 0.0000 -0.7071
vn 0.8315 0.0000 -0.5556
vn 0.9239 0.0000 -0.3827
vn 0.9808 0.0000 -0.1951
vn 1.0000 -0.0000 0.0000
vn 0.9808 -0.0000 0.1951
vn 0.9239 -0.0000 0.3827
vn 0.8315 -0.0000 0.5556
vn 0.7071 -0.0000 0.7071
vn 0.5556 -0.0000 0.8315
vn 0.3827 -0.0000 0.9239
vn 0.1951 -0.0000 0.9808
vn 0.0000 -0.0000 1.0000
vn -0.1951 -0.0000 0.9808
vn -0.3827 -0.0000 0.9239
vn -0.5556 -0.0000 0.8315
vn -0.7071 -0.0000 0.7071
vn -0.8315 -0.0000 0.5556
vn -0.9239 -0.0000 0.3827
vn -0.9808 -0.0000 0.1951
vn -1.0000 0.0000 -0.0000
vn -0.9808 0.0000 -0.1951
vn -0.9239 0.0000 -0.3827
vn -0.8315 0.0000 -0.5556
vn -0.7071 0.0000 -0.7071
vn -0.5556 0.0000 -0.8315
vn -0.3827 0.0000 -0.9239
vn -0.0000 1.0000 0.0000
vn -0.1951 0.0000 -0.9808
vn 0.0000 -1.0000 -0.0000
usemtl None.001
s 1
f 1//1 2//1 3//2 4//2
f 4//2 3//2 5//3 6//3
f 6//3 5//3 7//4 8//4
f 8//4 7//4 9//5 10//5
f 10//5 9//5 11//6 12//6
f 12//6 11//6 13//7 14//7
f 14//7 13//7 15//8 16//8
f 16//8 15//8 17//9 18//9
f 18//9 17//9 19//10 20//10
f 20//10 19//10 21//11 22//11
f 22//11 21//11 23//12 24//12
f 24//12 23//12 25//13 26//13
f 26//13 25//13 27//14 28//14
f 28//14 27//14 29//15 30//15
f 30//15 29//15 31//16 32//16
f 32//16 31//16 33//17 34//17
f 34//17 33//17 35//18 36//18
f 36//18 35//18 37//19 38//19
f 38//19 37//19 39//20 40//20
f 40//20 39//20 41//21 42//21
f 42//21 41//21 43//22 44//22
f 44//22 43//22 45//23 46//23
f 46//23 45//23 47//24 48//24
f 48//24 47//24 49//25 50//25
f 50//25 49//25 51//26 52//26
f 52//26 51//26 53//27 54//27
f 54//27 53//27 55//28 56//28
f 56//28 55//28 57//29 58//29
f 58//29 57//29 59//30 60//30
f 60//30 59//30 61//31 62//31
f 63//32 64//32 65//32 66//32 67//32 68//32 69//32 70//32 71//32 72//32 73//32 74//32 75//32 76//32 77//32 78//32 79//32 80//32 81//32 82//32 83//32 84//32 85//32 86//32 87//32 88//32 89//32 90//32 91//32 92//32 93//32 94//32
f 62//31 61//31 95//33 96//33
f 96//33 95//33 2//1 1//1
f 97//34 98//34 99//34 100//34 101//34 102//34 103//34 104//34 105//34 106//34 107//34 108//34 109//34 110//34 111//34 112//34 113//34 114//34 115//34 116//34 117//34 118//34 119//34 120//34 121//34 122//34 123//34 124//34 125//34 126//34 127//34 128//34
