# Blender v2.78 (sub 0) OBJ File: ''
# www.blender.org
mtllib newblocks.mtl
o Cube.001
v 1.232438 -0.682251 -0.030606
v 1.232438 -0.682251 1.969394
v -0.767563 -0.682251 1.969394
v -0.767562 -0.682251 -0.030606
v 1.232438 1.317749 -0.030605
v 1.232437 1.317749 1.969395
v -0.767563 1.317749 1.969394
v -0.767562 1.317749 -0.030606
v 1.231066 -0.681326 -2.027857
v 1.231066 -0.681326 -0.027857
v -0.768934 -0.681326 -0.027857
v -0.768933 -0.681326 -2.027857
v 1.231067 1.318674 -2.027856
v 1.231066 1.318674 -0.027856
v -0.768934 1.318674 -0.027857
v -0.768933 1.318674 -2.027857
vn 0.0000 -1.0000 0.0000
vn 0.0000 1.0000 0.0000
vn 1.0000 0.0000 0.0000
vn -0.0000 -0.0000 1.0000
vn -1.0000 -0.0000 -0.0000
vn 0.0000 0.0000 -1.0000
usemtl M2
s off
f 1//1 2//1 3//1 4//1
f 5//2 8//2 7//2 6//2
f 1//3 5//3 6//3 2//3
f 2//4 6//4 7//4 3//4
f 3//5 7//5 8//5 4//5
f 5//6 1//6 4//6 8//6
usemtl Material
f 9//1 10//1 11//1 12//1
f 13//2 16//2 15//2 14//2
f 9//3 13//3 14//3 10//3
f 10//4 14//4 15//4 11//4
f 11//5 15//5 16//5 12//5
f 13//6 9//6 12//6 16//6
