# Blender v2.78 (sub 0) OBJ File: ''
# www.blender.org
mtllib newblocks2.mtl
o Cube.001
v -0.716829 -1.689300 -0.023364
v -0.716829 -1.689300 1.976636
v -2.716829 -1.689300 1.976635
v -2.716828 -1.689300 -0.023365
v -0.716828 0.310700 -0.023364
v -0.716829 0.310700 1.976636
v -2.716829 0.310700 1.976635
v -2.716828 0.310700 -0.023364
v -0.718200 -1.688375 -2.020615
v -0.718200 -1.688375 -0.020615
v -2.718200 -1.688375 -0.020615
v -2.718199 -1.688375 -2.020616
v -0.718199 0.311625 -2.020615
v -0.718200 0.311625 -0.020615
v -2.718200 0.311625 -0.020616
v -2.718200 0.311625 -2.020615
v -0.496728 0.404966 0.982101
v 1.232438 -0.682251 -0.030606
v 1.232438 -0.682251 1.969394
v -0.767563 -0.682251 1.969394
v -0.767562 -0.682251 -0.030606
v 1.232438 1.317749 -0.030605
v 1.232437 1.317749 1.969395
v -0.767563 1.317749 1.969394
v -0.767562 1.317749 -0.030606
v 1.231066 -0.681326 -2.027857
v 1.231066 -0.681326 -0.027857
v -0.768934 -0.681326 -0.027857
v -0.768933 -0.681326 -2.027857
v 1.231067 1.318674 -2.027856
v 1.231066 1.318674 -0.027856
v -0.768934 1.318674 -0.027857
v -0.768933 1.318674 -2.027857
v 1.452538 1.412015 0.974859
vt 0.3841 0.4114
vt 0.2175 0.4114
vt 0.2175 0.2448
vt 0.3841 0.2448
vt 0.5507 0.4114
vt 0.5507 0.2448
vt 0.7172 0.2448
vt 0.7172 0.4114
vt 0.5507 0.5780
vt 0.3841 0.5780
vt 0.0509 0.4114
vt 0.0509 0.2448
vt 0.3841 0.0782
vt 0.5507 0.0782
vt 0.3841 0.4114
vt 0.2175 0.4114
vt 0.2175 0.2448
vt 0.3841 0.2448
vt 0.5507 0.4114
vt 0.5507 0.2448
vt 0.7172 0.2448
vt 0.7172 0.4114
vt 0.5507 0.5780
vt 0.3841 0.5780
vt 0.0509 0.4114
vt 0.0509 0.2448
vt 0.3841 0.0782
vt 0.5507 0.0782
vt 0.9921 0.8138
vt 0.8255 0.8138
vt 0.8255 0.6472
vt 0.9921 0.6472
vt 0.4923 0.8099
vt 0.4923 0.6433
vt 0.6589 0.6433
vt 0.6589 0.8099
vt 0.8255 0.9803
vt 0.6589 0.9803
vt 0.6589 0.8138
vt 0.6589 0.6472
vt 0.6589 0.4806
vt 0.8255 0.4806
vt 0.4987 0.6407
vt 0.4987 0.8073
vt 0.3322 0.8073
vt 0.3322 0.6407
vt 0.9921 0.8138
vt 0.8255 0.8138
vt 0.8255 0.6472
vt 0.9921 0.6472
vt 0.4923 0.8099
vt 0.4923 0.6433
vt 0.6589 0.6433
vt 0.6589 0.8099
vt 0.8255 0.9803
vt 0.6589 0.9803
vt 0.6589 0.8138
vt 0.6589 0.6472
vt 0.6589 0.4806
vt 0.8255 0.4806
vt 0.4987 0.6407
vt 0.4987 0.8073
vt 0.3322 0.8073
vt 0.3322 0.6407
vn 0.0000 -1.0000 -0.0000
vn 0.0000 1.0000 -0.0000
vn 1.0000 0.0000 0.0000
vn -0.0000 -0.0000 1.0000
vn -1.0000 -0.0000 -0.0000
vn 0.0000 0.0000 -1.0000
usemtl M2
s off
f 1/1/1 2/2/1 3/3/1 4/4/1
f 5/5/2 8/6/2 7/7/2 6/8/2
f 1/1/3 5/5/3 6/9/3 2/10/3
f 2/2/4 6/11/4 7/12/4 3/3/4
f 3/13/5 7/14/5 8/6/5 4/4/5
f 5/5/6 1/1/6 4/4/6 8/6/6
f 18/15/1 19/16/1 20/17/1 21/18/1
f 22/19/2 25/20/2 24/21/2 23/22/2
f 18/15/3 22/19/3 23/23/3 19/24/3
f 19/16/4 23/25/4 24/26/4 20/17/4
f 20/27/5 24/28/5 25/20/5 21/18/5
f 22/19/6 18/15/6 21/18/6 25/20/6
usemtl Material
f 9/29/1 10/30/1 11/31/1 12/32/1
f 13/33/2 16/34/2 15/35/2 14/36/2
f 9/37/3 13/38/3 14/39/3 10/30/3
f 10/30/4 14/39/4 15/40/4 11/31/4
f 11/31/5 15/40/5 16/41/5 12/42/5
f 13/43/6 9/44/6 12/45/6 16/46/6
f 26/47/1 27/48/1 28/49/1 29/50/1
f 30/51/2 33/52/2 32/53/2 31/54/2
f 26/55/3 30/56/3 31/57/3 27/48/3
f 27/48/4 31/57/4 32/58/4 28/49/4
f 28/49/5 32/58/5 33/59/5 29/60/5
f 30/61/6 26/62/6 29/63/6 33/64/6
