# Blender v2.74 (sub 0) OBJ File: ''
# www.blender.org
o planttreepalmbase.001
v -6.000000 0.000002 -6.000000
v -6.000000 -3.999998 -6.000000
v 26.000000 -3.999998 -6.000000
v 26.000000 0.000002 -6.000000
v -6.000000 -0.000010 26.000000
v -6.000000 -4.000010 26.000000
v 26.000000 -0.000010 26.000000
v 26.000000 -4.000010 26.000000
v -10.000001 4.000002 -10.000000
v 30.000000 4.000002 -10.000000
v 30.000000 -3.999998 -10.000000
v -10.000001 -3.999998 -10.000000
v -10.000001 3.999990 30.000000
v -10.000001 -4.000010 30.000000
v 30.000000 3.999990 30.000000
v 30.000000 -4.000010 30.000000
v 16.000000 -0.000004 10.000000
v 15.543400 -0.000004 7.703800
v 15.543400 -4.000004 7.703800
v 16.000000 -4.000004 10.000000
v 14.242599 -0.000002 5.757400
v 14.242599 -4.000002 5.757400
v 12.296200 -0.000002 4.456600
v 12.296200 -4.000002 4.456600
v 10.000000 -0.000002 4.000000
v 10.000000 -4.000002 4.000000
v 7.703800 -0.000002 4.456600
v 7.703800 -4.000002 4.456600
v 5.757400 -0.000002 5.757400
v 5.757400 -4.000002 5.757400
v 4.456600 -0.000004 7.703800
v 4.456600 -4.000004 7.703800
v 4.000000 -0.000004 10.000000
v 4.000000 -4.000004 10.000000
v 4.456600 -0.000004 12.296200
v 4.456600 -4.000004 12.296200
v 5.757400 -0.000006 14.242599
v 5.757400 -4.000006 14.242598
v 7.703800 -0.000006 15.543400
v 7.703800 -4.000006 15.543400
v 10.000000 -0.000006 16.000000
v 10.000000 -4.000006 16.000000
v 12.296200 -0.000006 15.543400
v 12.296200 -4.000006 15.543400
v 14.242599 -0.000006 14.242599
v 14.242599 -4.000006 14.242598
v 15.543400 -0.000004 12.296200
v 15.543400 -4.000004 12.296200
v 18.000000 -0.000004 10.000000
v 18.000000 -4.000004 10.000000
v 17.391201 -4.000002 6.938398
v 17.391201 -0.000002 6.938400
v 15.656799 -4.000002 4.343200
v 15.656799 -0.000002 4.343200
v 13.061600 -4.000002 2.608799
v 13.061600 -0.000002 2.608800
v 10.000000 -4.000002 2.000000
v 10.000000 -0.000002 2.000000
v 6.938400 -4.000002 2.608799
v 6.938400 -0.000002 2.608800
v 4.343200 -4.000002 4.343200
v 4.343200 -0.000002 4.343200
v 2.608800 -4.000002 6.938398
v 2.608800 -0.000002 6.938400
v 2.000000 -4.000004 10.000000
v 2.000000 -0.000004 10.000000
v 2.608800 -4.000006 13.061600
v 2.608800 -0.000006 13.061600
v 4.343200 -4.000006 15.656799
v 4.343200 -0.000006 15.656799
v 6.938400 -4.000006 17.391201
v 6.938400 -0.000006 17.391201
v 10.000000 -4.000006 18.000000
v 10.000000 -0.000006 18.000000
v 13.061600 -4.000006 17.391201
v 13.061600 -0.000006 17.391201
v 15.656799 -4.000006 15.656799
v 15.656799 -0.000006 15.656799
v 17.391201 -4.000006 13.061600
v 17.391201 -0.000006 13.061600
v 18.000000 -0.000002 2.000000
v 2.000000 -0.000002 2.000000
v 2.000000 -0.000006 18.000000
v 18.000000 -0.000006 18.000000
v 16.000000 3.999994 16.000000
v 4.000000 3.999994 16.000000
v 4.000000 3.999998 4.000002
v 16.000000 3.999998 4.000002
v 16.000000 15.999996 10.000006
v 15.543400 15.999996 7.703806
v 14.242599 15.999996 5.757406
v 12.296200 15.999998 4.456606
v 10.000000 15.999998 4.000006
v 7.703800 15.999998 4.456606
v 5.757400 15.999996 5.757406
v 4.456600 15.999996 7.703806
v 4.000000 15.999996 10.000006
v 4.456600 15.999996 12.296206
v 5.757400 15.999996 14.242604
v 7.703800 15.999994 15.543406
v 10.000000 15.999994 16.000008
v 12.296200 15.999994 15.543406
v 14.242599 15.999996 14.242604
v 15.543400 15.999996 12.296206
v 10.000000 15.999996 6.000006
v 8.469200 15.999996 6.304406
v 7.171600 15.999996 7.171606
v 6.304400 15.999996 8.469206
v 6.000000 15.999996 10.000006
v 6.304400 15.999996 11.530806
v 7.171600 15.999996 12.828406
v 8.469200 15.999996 13.695607
v 10.000000 15.999996 14.000006
v 11.530800 15.999996 13.695607
v 12.828400 15.999996 12.828406
v 13.695601 15.999996 11.530806
v 14.000000 15.999996 10.000006
v 13.695601 15.999996 8.469206
v 12.828400 15.999996 7.171606
v 11.530800 15.999996 6.304406
v 14.000000 16.999996 10.000006
v 13.695601 16.999996 8.469206
v 12.828400 16.999996 7.171606
v 11.530800 16.999996 6.304406
v 10.000000 16.999996 6.000006
v 8.469200 16.999996 6.304406
v 7.171600 16.999996 7.171606
v 6.304400 16.999996 8.469206
v 6.000000 16.999996 10.000006
v 6.304400 16.999996 11.530806
v 7.171600 16.999996 12.828406
v 8.469200 16.999996 13.695607
v 10.000000 16.999996 14.000006
v 11.530800 16.999996 13.695607
v 12.828400 16.999996 12.828406
v 13.695601 16.999996 11.530806
v 14.000000 20.999996 10.000008
v 13.695601 20.999996 8.469208
v 12.828400 20.999996 7.171607
v 11.530800 21.000000 6.304406
v 10.000000 21.000000 6.000008
v 8.469200 21.000000 6.304406
v 7.171600 20.999996 7.171607
v 6.304400 20.999996 8.469208
v 6.000000 20.999996 10.000008
v 6.304400 20.999996 11.530807
v 7.171600 20.999996 12.828407
v 8.469200 20.999992 13.695609
v 10.000000 20.999992 14.000008
v 11.530800 20.999992 13.695609
v 12.828400 20.999996 12.828407
v 13.695601 20.999996 11.530807
v 16.000000 16.999996 10.000006
v 15.543400 16.999996 7.703806
v 15.543400 20.999996 7.703808
v 16.000000 20.999996 10.000008
v 14.242599 16.999996 5.757406
v 14.242599 21.000000 5.757408
v 12.296200 17.000000 4.456606
v 12.296200 21.000000 4.456608
v 10.000000 17.000000 4.000006
v 10.000000 21.000000 4.000008
v 7.703800 17.000000 4.456606
v 7.703800 21.000000 4.456608
v 5.757400 16.999996 5.757406
v 5.757400 21.000000 5.757408
v 4.456600 16.999996 7.703806
v 4.456600 20.999996 7.703808
v 4.000000 16.999996 10.000006
v 4.000000 20.999996 10.000008
v 4.456600 16.999996 12.296206
v 4.456600 20.999996 12.296207
v 5.757400 16.999996 14.242604
v 5.757400 20.999992 14.242606
v 7.703800 16.999992 15.543406
v 7.703800 20.999992 15.543407
v 10.000000 16.999992 16.000008
v 10.000000 20.999992 16.000008
v 12.296200 16.999992 15.543406
v 12.296200 20.999992 15.543407
v 14.242599 16.999996 14.242604
v 14.242599 20.999992 14.242606
v 15.543400 16.999996 12.296206
v 15.543400 20.999996 12.296207
v 6.938400 17.000000 2.608806
v 10.000000 17.000000 2.000006
v 4.343200 17.000000 4.343206
v 2.608800 16.999996 6.938406
v 2.000000 16.999996 10.000006
v 2.608800 16.999996 13.061605
v 4.343200 16.999992 15.656805
v 6.938400 16.999992 17.391209
v 10.000000 16.999992 18.000008
v 13.061600 16.999992 17.391209
v 15.656799 16.999992 15.656805
v 17.391201 16.999996 13.061605
v 18.000000 16.999996 10.000006
v 17.391201 16.999996 6.938406
v 15.656799 17.000000 4.343206
v 13.061600 17.000000 2.608806
v 20.000000 11.999996 10.000004
v 20.000000 3.999996 10.000002
v 19.239000 3.999998 6.173002
v 19.239000 11.999998 6.173004
v 17.070999 3.999998 2.929002
v 17.070999 11.999998 2.929004
v 13.827000 4.000000 0.761002
v 13.827000 12.000000 0.761003
v 10.000000 4.000000 0.000002
v 10.000000 12.000000 0.000004
v 6.173000 4.000000 0.761002
v 6.173000 12.000000 0.761003
v 2.929000 3.999998 2.929002
v 2.929000 11.999998 2.929004
v 0.761000 3.999998 6.173002
v 0.761000 11.999998 6.173004
v 0.000000 3.999996 10.000002
v 0.000000 11.999996 10.000004
v 0.761000 3.999996 13.827002
v 0.761000 11.999994 13.827003
v 2.929000 3.999994 17.070999
v 2.929000 11.999994 17.071003
v 6.173000 3.999994 19.239002
v 6.173000 11.999992 19.239004
v 10.000000 3.999994 20.000000
v 10.000000 11.999992 20.000004
v 13.827000 3.999994 19.239002
v 13.827000 11.999992 19.239004
v 17.070999 3.999994 17.070999
v 17.070999 11.999994 17.071003
v 19.239000 3.999996 13.827002
v 19.239000 11.999994 13.827003
v 20.000000 36.000000 10.000011
v 19.239000 36.000000 6.173012
v 17.070999 36.000000 2.929012
v 13.827000 36.000000 0.761011
v 10.000000 36.000000 0.000011
v 6.173000 36.000000 0.761011
v 2.929000 36.000000 2.929012
v 0.761000 36.000000 6.173012
v 0.000000 36.000000 10.000011
v 0.761000 36.000000 13.827011
v 2.929000 35.999992 17.071011
v 6.173000 35.999992 19.239012
v 10.000000 35.999992 20.000011
v 13.827000 35.999992 19.239012
v 17.070999 35.999992 17.071011
v 19.239000 36.000000 13.827011
v 22.000000 36.000000 10.000011
v 21.086601 36.000000 5.407812
v 18.485199 36.000000 1.514812
v 14.592199 36.000000 -1.086590
v 10.000000 36.000000 -1.999989
v 5.407800 36.000000 -1.086590
v 1.514800 36.000000 1.514812
v -1.086600 36.000000 5.407812
v -2.000000 36.000000 10.000011
v -1.086600 36.000000 14.592211
v 1.514800 35.999992 18.485210
v 5.407800 35.999992 21.086613
v 10.000000 35.999992 22.000011
v 14.592199 35.999992 21.086613
v 18.485199 35.999992 18.485210
v 21.086601 36.000000 14.592211
v 24.000000 36.000000 10.000011
v 22.934500 36.000000 4.642312
v 19.899399 36.000000 0.100612
v 15.357700 36.000000 -2.934488
v 10.000000 36.000000 -3.999989
v 4.642300 36.000000 -2.934488
v 0.100600 36.000000 0.100612
v -2.934500 36.000000 4.642312
v -4.000000 36.000000 10.000011
v -2.934500 36.000000 15.357712
v 0.100600 35.999992 19.899410
v 4.642300 35.999992 22.934511
v 10.000000 35.999992 24.000011
v 15.357700 35.999992 22.934511
v 19.899399 35.999992 19.899410
v 22.934500 36.000000 15.357712
v 22.000000 23.999996 10.000008
v 21.086800 24.000000 5.407609
v 18.485199 24.000000 1.514808
v 14.592400 24.000000 -1.086792
v 10.000000 24.000000 -1.999992
v 5.407600 24.000000 -1.086792
v 1.514800 24.000000 1.514808
v -1.086800 24.000000 5.407609
v -2.000000 23.999996 10.000008
v -1.086800 23.999992 14.592407
v 1.514800 23.999992 18.485207
v 5.407600 23.999992 21.086807
v 10.000000 23.999992 22.000008
v 14.592400 23.999992 21.086807
v 18.485199 23.999992 18.485207
v 21.086800 23.999992 14.592407
vn 0.000000 0.000000 1.000000
vn 1.000000 0.000000 0.000000
vn 0.000000 0.000000 -1.000000
vn -1.000000 0.000000 0.000000
vn -0.923900 -0.000000 0.382700
vn -0.707100 -0.000000 0.707100
vn -0.382700 -0.000000 0.923900
vn 0.382700 -0.000000 0.923900
vn 0.707100 -0.000000 0.707100
vn 0.923900 -0.000000 0.382700
vn 0.923900 0.000000 -0.382700
vn 0.707100 0.000000 -0.707100
vn 0.382700 0.000000 -0.923900
vn -0.382700 0.000000 -0.923900
vn -0.707100 0.000000 -0.707100
vn -0.923900 0.000000 -0.382700
vn 0.000000 -1.000000 -0.000000
vn 0.000000 1.000000 0.000000
vn 0.994600 -0.104000 -0.000000
vn 0.918900 -0.104000 -0.380600
vn 0.703300 -0.104000 -0.703300
vn 0.380600 -0.104000 -0.918900
vn 0.000000 -0.104000 -0.994600
vn -0.380600 -0.104000 -0.918900
vn -0.703300 -0.104000 -0.703300
vn -0.918900 -0.104000 -0.380600
vn -0.994600 -0.104000 -0.000000
vn -0.918900 -0.104000 0.380600
vn -0.703300 -0.104000 0.703300
vn -0.380600 -0.104000 0.918900
vn -0.000000 -0.104000 0.994600
vn 0.380600 -0.104000 0.918900
vn 0.703300 -0.104000 0.703300
vn 0.918900 -0.104000 0.380600
vn -0.918800 0.104700 0.380600
vn -0.994500 0.104700 0.000000
vn -0.703200 0.104700 0.703200
vn -0.380600 0.104700 0.918800
vn -0.000000 0.104700 0.994500
vn 0.380600 0.104700 0.918800
vn 0.703200 0.104700 0.703200
vn 0.918800 0.104700 0.380600
vn 0.994500 0.104700 0.000000
vn 0.918800 0.104700 -0.380600
vn 0.703200 0.104700 -0.703200
vn 0.380600 0.104700 -0.918800
vn 0.000000 0.104700 -0.994500
vn -0.380600 0.104700 -0.918800
vn -0.703200 0.104700 -0.703200
vn -0.918800 0.104700 -0.380600
vn 0.986400 -0.164400 -0.000000
vn 0.911300 -0.164400 -0.377500
vn 0.697500 -0.164400 -0.697500
vn 0.377500 -0.164400 -0.911300
vn -0.000000 -0.164400 -0.986400
vn -0.377500 -0.164400 -0.911300
vn -0.697500 -0.164400 -0.697500
vn -0.911300 -0.164400 -0.377500
vn -0.986400 -0.164400 -0.000000
vn -0.911300 -0.164400 0.377500
vn -0.697500 -0.164400 0.697500
vn -0.377500 -0.164400 0.911300
vn 0.000000 -0.164400 0.986400
vn 0.377500 -0.164400 0.911300
vn 0.697500 -0.164400 0.697500
vn 0.911300 -0.164400 0.377500
s off
f 1//1 2//1 3//1 4//1
f 5//2 6//2 2//2 1//2
f 7//3 8//3 6//3 5//3
f 4//4 3//4 8//4 7//4
f 9//3 10//3 11//3 12//3
f 13//4 9//4 12//4 14//4
f 15//1 13//1 14//1 16//1
f 10//2 15//2 16//2 11//2
s 1
f 17//4 18//5 19//5 20//4
f 18//5 21//6 22//6 19//5
f 21//6 23//7 24//7 22//6
f 23//7 25//1 26//1 24//7
f 25//1 27//8 28//8 26//1
f 27//8 29//9 30//9 28//8
f 29//9 31//10 32//10 30//9
f 31//10 33//2 34//2 32//10
f 33//2 35//11 36//11 34//2
f 35//11 37//12 38//12 36//11
f 37//12 39//13 40//13 38//12
f 39//13 41//3 42//3 40//13
f 41//3 43//14 44//14 42//3
f 43//14 45//15 46//15 44//14
f 45//15 47//16 48//16 46//15
f 47//16 17//4 20//4 48//16
f 49//2 50//2 51//11 52//11
f 52//11 51//11 53//12 54//12
f 54//12 53//12 55//13 56//13
f 56//13 55//13 57//3 58//3
f 58//3 57//3 59//14 60//14
f 60//14 59//14 61//15 62//15
f 62//15 61//15 63//16 64//16
f 64//16 63//16 65//4 66//4
f 66//4 65//4 67//5 68//5
f 68//5 67//5 69//6 70//6
f 70//6 69//6 71//7 72//7
f 72//7 71//7 73//1 74//1
f 74//1 73//1 75//8 76//8
f 76//8 75//8 77//9 78//9
f 78//9 77//9 79//10 80//10
f 80//10 79//10 50//2 49//2
f 59//17 57//17 26//17 28//17
f 61//17 59//17 28//17 30//17
f 63//17 61//17 30//17 32//17
f 65//17 63//17 32//17 34//17
f 67//17 65//17 34//17 36//17
f 69//17 67//17 36//17 38//17
f 71//17 69//17 38//17 40//17
f 73//17 71//17 40//17 42//17
f 75//17 73//17 42//17 44//17
f 77//17 75//17 44//17 46//17
f 79//17 77//17 46//17 48//17
f 50//17 79//17 48//17 20//17
f 51//17 50//17 20//17 19//17
f 53//17 51//17 19//17 22//17
f 55//17 53//17 22//17 24//17
f 57//17 55//17 24//17 26//17
f 52//17 81//17 49//17
f 54//17 81//17 52//17
f 56//17 81//17 54//17
f 58//17 81//17 56//17
f 60//17 82//17 58//17
f 62//17 82//17 60//17
f 64//17 82//17 62//17
f 66//17 82//17 64//17
f 68//17 83//17 66//17
f 70//17 83//17 68//17
f 72//17 83//17 70//17
f 74//17 83//17 72//17
f 76//17 84//17 74//17
f 78//17 84//17 76//17
f 80//17 84//17 78//17
f 49//17 84//17 80//17
f 83//17 84//17 7//17 5//17
f 1//17 4//17 81//17 82//17
f 5//17 1//17 82//17 83//17
f 84//17 81//17 4//17 7//17
f 11//17 3//17 2//17 12//17
f 14//17 6//17 8//17 16//17
f 16//17 8//17 3//17 11//17
f 12//17 2//17 6//17 14//17
f 13//18 15//18 85//18 86//18
f 87//18 88//18 10//18 9//18
f 86//18 87//18 9//18 13//18
f 15//18 10//18 88//18 85//18
f 89//4 90//5 18//5 17//4
f 90//5 91//6 21//6 18//5
f 91//6 92//7 23//7 21//6
f 92//7 93//1 25//1 23//7
f 93//1 94//8 27//8 25//1
f 94//8 95//9 29//9 27//8
f 95//9 96//10 31//10 29//9
f 96//10 97//2 33//2 31//10
f 97//2 98//11 35//11 33//2
f 98//11 99//12 37//12 35//11
f 99//12 100//13 39//13 37//12
f 100//13 101//3 41//3 39//13
f 101//3 102//14 43//14 41//3
f 102//14 103//15 45//15 43//14
f 103//15 104//16 47//16 45//15
f 104//16 89//4 17//4 47//16
f 94//17 93//17 105//17 106//17
f 95//17 94//17 106//17 107//17
f 96//17 95//17 107//17 108//17
f 97//17 96//17 108//17 109//17
f 98//17 97//17 109//17 110//17
f 99//17 98//17 110//17 111//17
f 100//17 99//17 111//17 112//17
f 101//17 100//17 112//17 113//17
f 102//17 101//17 113//17 114//17
f 103//17 102//17 114//17 115//17
f 104//17 103//17 115//17 116//17
f 89//17 104//17 116//17 117//17
f 90//17 89//17 117//17 118//17
f 91//17 90//17 118//17 119//17
f 92//17 91//17 119//17 120//17
f 93//17 92//17 120//17 105//17
f 121//4 122//5 118//5 117//4
f 122//5 123//6 119//6 118//5
f 123//6 124//7 120//7 119//6
f 124//7 125//1 105//1 120//7
f 125//1 126//8 106//8 105//1
f 126//8 127//9 107//9 106//8
f 127//9 128//10 108//10 107//9
f 128//10 129//2 109//2 108//10
f 129//2 130//11 110//11 109//2
f 130//11 131//12 111//12 110//11
f 131//12 132//13 112//13 111//12
f 132//13 133//3 113//3 112//13
f 133//3 134//14 114//14 113//3
f 134//14 135//15 115//15 114//14
f 135//15 136//16 116//16 115//15
f 136//16 121//4 117//4 116//16
f 121//4 137//4 138//5 122//5
f 122//5 138//5 139//6 123//6
f 123//6 139//6 140//7 124//7
f 124//7 140//7 141//1 125//1
f 125//1 141//1 142//8 126//8
f 126//8 142//8 143//9 127//9
f 127//9 143//9 144//10 128//10
f 128//10 144//10 145//2 129//2
f 129//2 145//2 146//11 130//11
f 130//11 146//11 147//12 131//12
f 131//12 147//12 148//13 132//13
f 132//13 148//13 149//3 133//3
f 133//3 149//3 150//14 134//14
f 134//14 150//14 151//15 135//15
f 135//15 151//15 152//16 136//16
f 136//16 152//16 137//4 121//4
f 153//2 154//11 155//11 156//2
f 154//11 157//12 158//12 155//11
f 157//12 159//13 160//13 158//12
f 159//13 161//3 162//3 160//13
f 161//3 163//14 164//14 162//3
f 163//14 165//15 166//15 164//14
f 165//15 167//16 168//16 166//15
f 167//16 169//4 170//4 168//16
f 169//4 171//5 172//5 170//4
f 171//5 173//6 174//6 172//5
f 173//6 175//7 176//7 174//6
f 175//7 177//1 178//1 176//7
f 177//1 179//8 180//8 178//1
f 179//8 181//9 182//9 180//8
f 181//9 183//10 184//10 182//9
f 183//10 153//2 156//2 184//10
f 164//18 142//18 141//18 162//18
f 166//18 143//18 142//18 164//18
f 168//18 144//18 143//18 166//18
f 170//18 145//18 144//18 168//18
f 172//18 146//18 145//18 170//18
f 174//18 147//18 146//18 172//18
f 176//18 148//18 147//18 174//18
f 178//18 149//18 148//18 176//18
f 180//18 150//18 149//18 178//18
f 182//18 151//18 150//18 180//18
f 184//18 152//18 151//18 182//18
f 156//18 137//18 152//18 184//18
f 155//18 138//18 137//18 156//18
f 158//18 139//18 138//18 155//18
f 160//18 140//18 139//18 158//18
f 162//18 141//18 140//18 160//18
f 185//18 163//18 161//18 186//18
f 187//18 165//18 163//18 185//18
f 188//18 167//18 165//18 187//18
f 189//18 169//18 167//18 188//18
f 190//18 171//18 169//18 189//18
f 191//18 173//18 171//18 190//18
f 192//18 175//18 173//18 191//18
f 193//18 177//18 175//18 192//18
f 194//18 179//18 177//18 193//18
f 195//18 181//18 179//18 194//18
f 196//18 183//18 181//18 195//18
f 197//18 153//18 183//18 196//18
f 198//18 154//18 153//18 197//18
f 199//18 157//18 154//18 198//18
f 200//18 159//18 157//18 199//18
f 186//18 161//18 159//18 200//18
f 201//19 202//2 203//11 204//20
f 204//20 203//11 205//12 206//21
f 206//21 205//12 207//13 208//22
f 208//22 207//13 209//3 210//23
f 210//23 209//3 211//14 212//24
f 212//24 211//14 213//15 214//25
f 214//25 213//15 215//16 216//26
f 216//26 215//16 217//4 218//27
f 218//27 217//4 219//5 220//28
f 220//28 219//5 221//6 222//29
f 222//29 221//6 223//7 224//30
f 224//30 223//7 225//1 226//31
f 226//31 225//1 227//8 228//32
f 228//32 227//8 229//9 230//33
f 230//33 229//9 231//10 232//34
f 232//34 231//10 202//2 201//19
f 198//35 197//36 233//36 234//35
f 199//37 198//35 234//35 235//37
f 200//38 199//37 235//37 236//38
f 186//39 200//38 236//38 237//39
f 185//40 186//39 237//39 238//40
f 187//41 185//40 238//40 239//41
f 188//42 187//41 239//41 240//42
f 189//43 188//42 240//42 241//43
f 190//44 189//43 241//43 242//44
f 191//45 190//44 242//44 243//45
f 192//46 191//45 243//45 244//46
f 193//47 192//46 244//46 245//47
f 194//48 193//47 245//47 246//48
f 195//49 194//48 246//48 247//49
f 196//50 195//49 247//49 248//50
f 197//36 196//50 248//50 233//36
f 249//18 250//18 234//18 233//18
f 250//18 251//18 235//18 234//18
f 251//18 252//18 236//18 235//18
f 252//18 253//18 237//18 236//18
f 253//18 254//18 238//18 237//18
f 254//18 255//18 239//18 238//18
f 255//18 256//18 240//18 239//18
f 256//18 257//18 241//18 240//18
f 257//18 258//18 242//18 241//18
f 258//18 259//18 243//18 242//18
f 259//18 260//18 244//18 243//18
f 260//18 261//18 245//18 244//18
f 261//18 262//18 246//18 245//18
f 262//18 263//18 247//18 246//18
f 263//18 264//18 248//18 247//18
f 264//18 249//18 233//18 248//18
f 265//18 266//18 250//18 249//18
f 266//18 267//18 251//18 250//18
f 267//18 268//18 252//18 251//18
f 268//18 269//18 253//18 252//18
f 269//18 270//18 254//18 253//18
f 270//18 271//18 255//18 254//18
f 271//18 272//18 256//18 255//18
f 272//18 273//18 257//18 256//18
f 273//18 274//18 258//18 257//18
f 274//18 275//18 259//18 258//18
f 275//18 276//18 260//18 259//18
f 276//18 277//18 261//18 260//18
f 277//18 278//18 262//18 261//18
f 278//18 279//18 263//18 262//18
f 279//18 280//18 264//18 263//18
f 280//18 265//18 249//18 264//18
f 281//51 282//52 266//52 265//51
f 282//52 283//53 267//53 266//52
f 283//53 284//54 268//54 267//53
f 284//54 285//55 269//55 268//54
f 285//55 286//56 270//56 269//55
f 286//56 287//57 271//57 270//56
f 287//57 288//58 272//58 271//57
f 288//58 289//59 273//59 272//58
f 289//59 290//60 274//60 273//59
f 290//60 291//61 275//61 274//60
f 291//61 292//62 276//62 275//61
f 292//62 293//63 277//63 276//62
f 293//63 294//64 278//64 277//63
f 294//64 295//65 279//65 278//64
f 295//65 296//66 280//66 279//65
f 296//66 281//51 265//51 280//66
f 201//19 204//20 282//52 281//51
f 204//20 206//21 283//53 282//52
f 206//21 208//22 284//54 283//53
f 208//22 210//23 285//55 284//54
f 210//23 212//24 286//56 285//55
f 212//24 214//25 287//57 286//56
f 214//25 216//26 288//58 287//57
f 216//26 218//27 289//59 288//58
f 218//27 220//28 290//60 289//59
f 220//28 222//29 291//61 290//60
f 222//29 224//30 292//62 291//61
f 224//30 226//31 293//63 292//62
f 226//31 228//32 294//64 293//63
f 228//32 230//33 295//65 294//64
f 230//33 232//34 296//66 295//65
f 232//34 201//19 281//51 296//66
