# This file uses centimeters as units for non-parametric coordinates.

v 26.000000 -4.000000 0.000000
v 25.543400 -4.000000 2.296200
v 24.242599 -4.000000 4.242600
v 22.296200 -4.000000 5.543400
v 20.000000 -4.000000 6.000000
v 17.703800 -4.000000 5.543400
v 15.757401 -4.000000 4.242600
v 14.456600 -4.000000 2.296200
v 14.000000 -4.000000 0.000000
v 6.000000 -4.000000 0.000000
v 5.543400 -4.000000 2.296200
v 4.242600 -4.000000 4.242600
v 2.296200 -4.000000 5.543400
v 0.000000 -4.000000 6.000000
v -2.296200 -4.000000 5.543400
v -4.242600 -4.000000 4.242600
v -5.543400 -4.000000 2.296200
v -6.000000 -4.000000 0.000000
v -10.000000 -4.000000 10.000000
v 30.000000 -4.000000 10.000000
v -10.000000 -4.000000 -10.000000
v -5.543400 -4.000000 -2.296200
v -4.242600 -4.000000 -4.242600
v -2.296200 -4.000000 -5.543400
v 0.000000 -4.000000 -6.000000
v 2.296200 -4.000000 -5.543400
v 4.242600 -4.000000 -4.242600
v 5.543400 -4.000000 -2.296200
v 14.456600 -4.000000 -2.296200
v 15.757401 -4.000000 -4.242600
v 17.703800 -4.000000 -5.543400
v 20.000000 -4.000000 -6.000000
v 22.296200 -4.000000 -5.543400
v 24.242599 -4.000000 -4.242600
v 25.543400 -4.000000 -2.296200
v 30.000000 -4.000000 -10.000000
v 30.000000 -12.000000 -10.000000
v -10.000000 -12.000000 -10.000000
v -10.000000 -12.000000 10.000000
v 30.000000 -12.000000 10.000000
v 26.000000 0.000000 0.000000
v 25.543400 0.000000 -2.296200
v 20.000000 0.000000 0.000000
v 25.543400 0.000000 2.296200
v 24.242599 0.000000 -4.242600
v 24.242599 0.000000 4.242600
v 22.296200 0.000000 -5.543400
v 22.296200 0.000000 5.543400
v 20.000000 0.000000 -6.000000
v 20.000000 0.000000 6.000000
v 17.703800 0.000000 -5.543400
v 17.703800 0.000000 5.543400
v 15.757401 0.000000 -4.242600
v 15.757401 0.000000 4.242600
v 14.456600 0.000000 -2.296200
v 14.456600 0.000000 2.296200
v 14.000000 0.000000 0.000000
v 6.000000 0.000000 0.000000
v 5.543400 0.000000 -2.296200
v 0.000000 0.000000 0.000000
v 5.543400 0.000000 2.296200
v 4.242600 0.000000 -4.242600
v 4.242600 0.000000 4.242600
v 2.296200 0.000000 -5.543400
v 2.296200 0.000000 5.543400
v 0.000000 0.000000 -6.000000
v 0.000000 0.000000 6.000000
v -2.296200 0.000000 -5.543400
v -2.296200 0.000000 5.543400
v -4.242600 0.000000 -4.242600
v -4.242600 0.000000 4.242600
v -5.543400 0.000000 -2.296200
v -5.543400 0.000000 2.296200
v -6.000000 0.000000 0.000000
vt 0.419564 0.056474
vt 0.388169 0.062717
vt 0.361556 0.080502
vt 0.343770 0.107115
vt 0.337527 0.138511
vt 0.343770 0.169906
vt 0.361556 0.196519
vt 0.388169 0.214305
vt 0.419564 0.220548
vt 0.419564 0.329931
vt 0.388169 0.336174
vt 0.361556 0.353959
vt 0.343770 0.380572
vt 0.337527 0.411968
vt 0.343770 0.443363
vt 0.361556 0.469976
vt 0.388169 0.487762
vt 0.419564 0.494005
vt 0.282836 0.548696
vt 0.282836 0.001782
vt 0.556293 0.548696
vt 0.450960 0.487762
vt 0.477573 0.469976
vt 0.495358 0.443363
vt 0.501601 0.411968
vt 0.495358 0.380572
vt 0.477573 0.353959
vt 0.450960 0.336174
vt 0.450960 0.214305
vt 0.477573 0.196519
vt 0.495358 0.169906
vt 0.501601 0.138511
vt 0.495358 0.107115
vt 0.477573 0.080502
vt 0.450960 0.062717
vt 0.556293 0.001782
vt 0.563485 0.548696
vt 0.563485 0.001782
vt 0.672868 0.001782
vt 0.672868 0.548696
vt 0.766972 0.826144
vt 0.766972 0.552687
vt 0.876355 0.552687
vt 0.876355 0.826144
vt 0.789805 0.001782
vt 0.789805 0.548696
vt 0.680422 0.548696
vt 0.680422 0.001782
vt 0.651454 0.826144
vt 0.651454 0.552688
vt 0.760837 0.552688
vt 0.760837 0.826144
vt 0.128555 0.628482
vt 0.183246 0.628482
vt 0.183246 0.659877
vt 0.128555 0.659877
vt 0.441628 0.634725
vt 0.441628 0.552687
vt 0.473023 0.558931
vt 0.128555 0.597086
vt 0.183246 0.597086
vt 0.183246 0.686490
vt 0.128555 0.686490
vt 0.499636 0.576716
vt 0.410232 0.558931
vt 0.128555 0.570474
vt 0.183246 0.570474
vt 0.183246 0.704276
vt 0.128555 0.704276
vt 0.517422 0.603329
vt 0.383619 0.576716
vt 0.128555 0.552688
vt 0.183246 0.552688
vt 0.119124 0.708267
vt 0.173815 0.708267
vt 0.173815 0.739663
vt 0.119124 0.739663
vt 0.523665 0.634725
vt 0.365833 0.603329
vt 0.610381 0.752148
vt 0.555689 0.752148
vt 0.555689 0.720753
vt 0.610381 0.720753
vt 0.173815 0.771058
vt 0.119124 0.771058
vt 0.517422 0.666120
vt 0.359590 0.634725
vt 0.610381 0.783543
vt 0.555689 0.783543
vt 0.173815 0.797671
vt 0.119124 0.797671
vt 0.499636 0.692733
vt 0.365833 0.666120
vt 0.181490 0.810157
vt 0.236182 0.810157
vt 0.236182 0.827943
vt 0.181490 0.827943
vt 0.173815 0.815457
vt 0.119124 0.815457
vt 0.473023 0.710519
vt 0.383619 0.692733
vt 0.181490 0.783544
vt 0.236182 0.783544
vt 0.181490 0.720753
vt 0.236182 0.720753
vt 0.236182 0.752149
vt 0.181490 0.752149
vt 0.441628 0.716762
vt 0.410232 0.710519
vt 0.067728 0.628482
vt 0.122419 0.628482
vt 0.122419 0.659877
vt 0.067728 0.659877
vt 0.271418 0.634725
vt 0.353455 0.634725
vt 0.347212 0.666120
vt 0.067728 0.597086
vt 0.122419 0.597086
vt 0.122419 0.686490
vt 0.067728 0.686490
vt 0.329426 0.692733
vt 0.347212 0.603329
vt 0.067728 0.570474
vt 0.122419 0.570474
vt 0.122419 0.704276
vt 0.067728 0.704276
vt 0.302814 0.710519
vt 0.329426 0.576716
vt 0.067728 0.552688
vt 0.122419 0.552688
vt 0.243857 0.720753
vt 0.298548 0.720753
vt 0.298548 0.752149
vt 0.243857 0.752149
vt 0.271418 0.716762
vt 0.302814 0.558931
vt 0.672747 0.861531
vt 0.618056 0.861531
vt 0.618056 0.830135
vt 0.672747 0.830135
vt 0.298548 0.783544
vt 0.243857 0.783544
vt 0.240023 0.710519
vt 0.271418 0.552688
vt 0.672747 0.892926
vt 0.618056 0.892926
vt 0.298548 0.810157
vt 0.243857 0.810157
vt 0.213410 0.692733
vt 0.240023 0.558931
vt 0.306223 0.810157
vt 0.360915 0.810157
vt 0.360915 0.827943
vt 0.306223 0.827943
vt 0.298548 0.827943
vt 0.243857 0.827943
vt 0.195624 0.666120
vt 0.213410 0.576716
vt 0.306223 0.783544
vt 0.360915 0.783544
vt 0.306223 0.720753
vt 0.360915 0.720753
vt 0.360915 0.752149
vt 0.306223 0.752149
vt 0.189381 0.634725
vt 0.195624 0.603329
vn 0.000000 1.000000 0.000000
vn 0.000000 1.000000 0.000000
vn 0.000000 1.000000 0.000000
vn 0.000000 1.000000 0.000000
vn 0.000000 1.000000 0.000000
vn 0.000000 1.000000 0.000000
vn 0.000000 1.000000 0.000000
vn 0.000000 1.000000 0.000000
vn 0.000000 1.000000 0.000000
vn 0.000000 1.000000 0.000000
vn 0.000000 1.000000 0.000000
vn 0.000000 1.000000 0.000000
vn 0.000000 1.000000 0.000000
vn 0.000000 1.000000 0.000000
vn 0.000000 1.000000 0.000000
vn 0.000000 1.000000 0.000000
vn 0.000000 1.000000 0.000000
vn 0.000000 1.000000 0.000000
vn 0.000000 1.000000 0.000000
vn 0.000000 1.000000 0.000000
vn 0.000000 1.000000 0.000000
vn 0.000000 1.000000 0.000000
vn 0.000000 1.000000 0.000000
vn 0.000000 1.000000 0.000000
vn 0.000000 1.000000 0.000000
vn 0.000000 1.000000 0.000000
vn 0.000000 1.000000 0.000000
vn 0.000000 1.000000 0.000000
vn 0.000000 1.000000 0.000000
vn 0.000000 1.000000 0.000000
vn 0.000000 1.000000 0.000000
vn 0.000000 1.000000 0.000000
vn 0.000000 1.000000 0.000000
vn 0.000000 1.000000 0.000000
vn 0.000000 1.000000 0.000000
vn 0.000000 1.000000 0.000000
vn 0.000000 0.000000 -1.000000
vn 0.000000 0.000000 -1.000000
vn 0.000000 0.000000 -1.000000
vn 0.000000 0.000000 -1.000000
vn -1.000000 0.000000 0.000000
vn -1.000000 0.000000 0.000000
vn -1.000000 0.000000 0.000000
vn -1.000000 0.000000 0.000000
vn 0.000000 0.000000 1.000000
vn 0.000000 0.000000 1.000000
vn 0.000000 0.000000 1.000000
vn 0.000000 0.000000 1.000000
vn 1.000000 0.000000 0.000000
vn 1.000000 0.000000 0.000000
vn 1.000000 0.000000 0.000000
vn 1.000000 0.000000 0.000000
vn 0.000000 -1.000000 0.000000
vn 0.000000 -1.000000 0.000000
vn 0.000000 -1.000000 0.000000
vn 0.000000 -1.000000 0.000000
vn 1.000000 0.000000 0.000000
vn 1.000000 0.000000 0.000000
vn 0.923875 0.000000 -0.382694
vn 0.923875 0.000000 -0.382694
vn 0.000000 1.000000 0.000000
vn 0.000000 1.000000 0.000000
vn 0.000000 1.000000 0.000000
vn 0.923875 0.000000 0.382694
vn 0.923875 0.000000 0.382694
vn 0.707107 0.000000 -0.707107
vn 0.707107 0.000000 -0.707107
vn 0.000000 1.000000 0.000000
vn 0.000000 1.000000 0.000000
vn 0.707107 0.000000 0.707107
vn 0.707107 0.000000 0.707107
vn 0.382694 0.000000 -0.923875
vn 0.382694 0.000000 -0.923875
vn 0.000000 1.000000 0.000000
vn 0.000000 1.000000 0.000000
vn 0.382694 0.000000 0.923875
vn 0.382694 0.000000 0.923875
vn 0.000000 0.000000 -1.000000
vn 0.000000 0.000000 -1.000000
vn 0.000000 1.000000 0.000000
vn 0.000000 1.000000 0.000000
vn 0.000000 0.000000 1.000000
vn 0.000000 0.000000 1.000000
vn -0.382694 0.000000 -0.923875
vn -0.382694 0.000000 -0.923875
vn 0.000000 1.000000 0.000000
vn 0.000000 1.000000 0.000000
vn -0.382694 0.000000 0.923875
vn -0.382694 0.000000 0.923875
vn -0.707107 0.000000 -0.707107
vn -0.707107 0.000000 -0.707107
vn 0.000000 1.000000 0.000000
vn 0.000000 1.000000 0.000000
vn -0.707107 0.000000 0.707107
vn -0.707107 0.000000 0.707107
vn -0.923875 0.000000 -0.382694
vn -0.923875 0.000000 -0.382694
vn 0.000000 1.000000 0.000000
vn 0.000000 1.000000 0.000000
vn -0.923875 0.000000 0.382694
vn -0.923875 0.000000 0.382694
vn -1.000000 0.000000 0.000000
vn -1.000000 0.000000 0.000000
vn 0.000000 1.000000 0.000000
vn 0.000000 1.000000 0.000000
vn 1.000000 0.000000 0.000000
vn 1.000000 0.000000 0.000000
vn 0.923875 0.000000 -0.382694
vn 0.923875 0.000000 -0.382694
vn 0.000000 1.000000 0.000000
vn 0.000000 1.000000 0.000000
vn 0.000000 1.000000 0.000000
vn 0.923875 0.000000 0.382694
vn 0.923875 0.000000 0.382694
vn 0.707107 0.000000 -0.707107
vn 0.707107 0.000000 -0.707107
vn 0.000000 1.000000 0.000000
vn 0.000000 1.000000 0.000000
vn 0.707107 0.000000 0.707107
vn 0.707107 0.000000 0.707107
vn 0.382694 0.000000 -0.923875
vn 0.382694 0.000000 -0.923875
vn 0.000000 1.000000 0.000000
vn 0.000000 1.000000 0.000000
vn 0.382694 0.000000 0.923875
vn 0.382694 0.000000 0.923875
vn 0.000000 0.000000 -1.000000
vn 0.000000 0.000000 -1.000000
vn 0.000000 1.000000 0.000000
vn 0.000000 1.000000 0.000000
vn 0.000000 0.000000 1.000000
vn 0.000000 0.000000 1.000000
vn -0.382694 0.000000 -0.923875
vn -0.382694 0.000000 -0.923875
vn 0.000000 1.000000 0.000000
vn 0.000000 1.000000 0.000000
vn -0.382694 0.000000 0.923875
vn -0.382694 0.000000 0.923875
vn -0.707107 0.000000 -0.707107
vn -0.707107 0.000000 -0.707107
vn 0.000000 1.000000 0.000000
vn 0.000000 1.000000 0.000000
vn -0.707107 0.000000 0.707107
vn -0.707107 0.000000 0.707107
vn -0.923875 0.000000 -0.382694
vn -0.923875 0.000000 -0.382694
vn 0.000000 1.000000 0.000000
vn 0.000000 1.000000 0.000000
vn -0.923875 0.000000 0.382694
vn -0.923875 0.000000 0.382694
vn -1.000000 0.000000 0.000000
vn -1.000000 0.000000 0.000000
vn 0.000000 1.000000 0.000000
vn 0.000000 1.000000 0.000000
s 1
g reduced_lego_3023 reduced_group1
f 1/1/1 2/2/2 3/3/3 4/4/4 5/5/5 6/6/6 7/7/7 8/8/8 9/9/9 10/10/10 11/11/11 12/12/12 13/13/13 14/14/14 15/15/15 16/16/16 17/17/17 18/18/18 19/19/19 20/20/20
f 21/21/21 19/19/19 18/18/18 22/22/22 23/23/23 24/24/24 25/25/25 26/26/26 27/27/27 28/28/28 10/10/10 9/9/9 29/29/29 30/30/30 31/31/31 32/32/32 33/33/33 34/34/34 35/35/35 1/1/1 20/20/20 36/36/36
s off
f 21/37/37 36/38/38 37/39/39 38/40/40
f 19/41/41 21/42/42 38/43/43 39/44/44
f 20/45/45 19/46/46 39/47/47 40/48/48
f 36/49/49 20/50/50 40/51/51 37/52/52
f 37/52/53 40/48/54 39/44/55 38/40/56
s 2
f 41/53/57 1/54/58 35/55/59 42/56/60
s 3
f 43/57/61 41/58/62 42/59/63
s 2
f 44/60/64 2/61/65 1/54/58 41/53/57
f 42/56/60 35/55/59 34/62/66 45/63/67
s 3
f 43/57/61 42/59/63 45/64/68
f 43/57/61 44/65/69 41/58/62
s 2
f 46/66/70 3/67/71 2/61/65 44/60/64
f 45/63/67 34/62/66 33/68/72 47/69/73
s 3
f 43/57/61 45/64/68 47/70/74
f 43/57/61 46/71/75 44/65/69
s 2
f 48/72/76 4/73/77 3/67/71 46/66/70
f 47/74/73 33/75/72 32/76/78 49/77/79
s 3
f 43/57/61 47/70/74 49/78/80
f 43/57/61 48/79/81 46/71/75
s 2
f 50/80/82 5/81/83 4/82/77 48/83/76
f 49/77/79 32/76/78 31/84/84 51/85/85
s 3
f 43/57/61 49/78/80 51/86/86
f 43/57/61 50/87/87 48/79/81
s 2
f 52/88/88 6/89/89 5/81/83 50/80/82
f 51/85/85 31/84/84 30/90/90 53/91/91
s 3
f 43/57/61 51/86/86 53/92/92
f 43/57/61 52/93/93 50/87/87
s 2
f 54/94/94 7/95/95 6/96/89 52/97/88
f 53/91/91 30/90/90 29/98/96 55/99/97
s 3
f 43/57/61 53/92/92 55/100/98
f 43/57/61 54/101/99 52/93/93
s 2
f 56/102/100 8/103/101 7/95/95 54/94/94
f 55/104/97 29/105/96 9/106/102 57/107/103
s 3
f 43/57/61 55/100/98 57/108/104
f 43/57/61 56/109/105 54/101/99
s 2
f 57/107/103 9/106/102 8/103/101 56/102/100
s 3
f 43/57/61 57/108/104 56/109/105
s 4
f 58/110/106 10/111/107 28/112/108 59/113/109
s 5
f 60/114/110 58/115/111 59/116/112
s 4
f 61/117/113 11/118/114 10/111/107 58/110/106
f 59/113/109 28/112/108 27/119/115 62/120/116
s 5
f 60/114/110 59/116/112 62/121/117
f 60/114/110 61/122/118 58/115/111
s 4
f 63/123/119 12/124/120 11/118/114 61/117/113
f 62/120/116 27/119/115 26/125/121 64/126/122
s 5
f 60/114/110 62/121/117 64/127/123
f 60/114/110 63/128/124 61/122/118
s 4
f 65/129/125 13/130/126 12/124/120 63/123/119
f 64/131/122 26/132/121 25/133/127 66/134/128
s 5
f 60/114/110 64/127/123 66/135/129
f 60/114/110 65/136/130 63/128/124
s 4
f 67/137/131 14/138/132 13/139/126 65/140/125
f 66/134/128 25/133/127 24/141/133 68/142/134
s 5
f 60/114/110 66/135/129 68/143/135
f 60/114/110 67/144/136 65/136/130
s 4
f 69/145/137 15/146/138 14/138/132 67/137/131
f 68/142/134 24/141/133 23/147/139 70/148/140
s 5
f 60/114/110 68/143/135 70/149/141
f 60/114/110 69/150/142 67/144/136
s 4
f 71/151/143 16/152/144 15/153/138 69/154/137
f 70/148/140 23/147/139 22/155/145 72/156/146
s 5
f 60/114/110 70/149/141 72/157/147
f 60/114/110 71/158/148 69/150/142
s 4
f 73/159/149 17/160/150 16/152/144 71/151/143
f 72/161/146 22/162/145 18/163/151 74/164/152
s 5
f 60/114/110 72/157/147 74/165/153
f 60/114/110 73/166/154 71/158/148
s 4
f 74/164/152 18/163/151 17/160/150 73/159/149
s 5
f 60/114/110 74/165/153 73/166/154
