# Blender v2.74 (sub 0) OBJ File: ''
# www.blender.org
o reduced_lego_3023_reduced_group1
v 26.000000 -4.000000 -0.000001
v 25.543400 -4.000000 2.296199
v 24.242599 -4.000001 4.242599
v 22.296200 -4.000001 5.543399
v 20.000000 -4.000001 6.000000
v 17.703800 -4.000001 5.543399
v 15.757401 -4.000001 4.242599
v 14.456600 -4.000000 2.296199
v 14.000000 -4.000000 -0.000001
v 6.000000 -4.000000 -0.000001
v 5.543400 -4.000000 2.296199
v 4.242600 -4.000001 4.242599
v 2.296200 -4.000001 5.543399
v 0.000000 -4.000001 6.000000
v -2.296200 -4.000001 5.543399
v -4.242600 -4.000001 4.242599
v -5.543400 -4.000000 2.296199
v -6.000000 -4.000000 -0.000001
v -9.999999 -4.000002 10.000000
v 30.000000 -4.000002 10.000000
v -9.999999 -3.999998 -10.000000
v -5.543400 -4.000000 -2.296201
v -4.242600 -3.999999 -4.242600
v -2.296200 -3.999999 -5.543400
v 0.000000 -3.999999 -6.000000
v 2.296200 -3.999999 -5.543400
v 4.242600 -3.999999 -4.242600
v 5.543400 -4.000000 -2.296201
v 14.456600 -4.000000 -2.296201
v 15.757401 -3.999999 -4.242600
v 17.703800 -3.999999 -5.543400
v 20.000000 -3.999999 -6.000000
v 22.296200 -3.999999 -5.543400
v 24.242599 -3.999999 -4.242600
v 25.543400 -4.000000 -2.296201
v 30.000000 -3.999998 -10.000000
v 30.000000 -11.999998 -10.000002
v -9.999999 -11.999998 -10.000002
v -9.999999 -12.000002 9.999998
v 30.000000 -12.000002 9.999998
v 26.000000 0.000000 0.000000
v 25.543400 0.000000 -2.296200
v 20.000000 0.000000 0.000000
v 25.543400 -0.000000 2.296200
v 24.242599 0.000000 -4.242600
v 24.242599 -0.000000 4.242600
v 22.296200 0.000001 -5.543400
v 22.296200 -0.000001 5.543400
v 20.000000 0.000001 -6.000000
v 20.000000 -0.000001 6.000000
v 17.703800 0.000001 -5.543400
v 17.703800 -0.000001 5.543400
v 15.757401 0.000000 -4.242600
v 15.757401 -0.000000 4.242600
v 14.456600 0.000000 -2.296200
v 14.456600 -0.000000 2.296200
v 14.000000 0.000000 0.000000
v 6.000000 0.000000 0.000000
v 5.543400 0.000000 -2.296200
v 0.000000 0.000000 0.000000
v 5.543400 -0.000000 2.296200
v 4.242600 0.000000 -4.242600
v 4.242600 -0.000000 4.242600
v 2.296200 0.000001 -5.543400
v 2.296200 -0.000001 5.543400
v 0.000000 0.000001 -6.000000
v 0.000000 -0.000001 6.000000
v -2.296200 0.000001 -5.543400
v -2.296200 -0.000001 5.543400
v -4.242600 0.000000 -4.242600
v -4.242600 -0.000000 4.242600
v -5.543400 0.000000 -2.296200
v -5.543400 -0.000000 2.296200
v -6.000000 0.000000 0.000000
vt 0.563485 0.548696
vt 0.563485 0.001782
vt 0.672868 0.001782
vt 0.672868 0.548696
vt 0.766972 0.826144
vt 0.766972 0.552687
vt 0.876355 0.552687
vt 0.876355 0.826144
vt 0.789805 0.001782
vt 0.789805 0.548696
vt 0.680422 0.548696
vt 0.680422 0.001782
vt 0.651454 0.826144
vt 0.651454 0.552688
vt 0.760837 0.552688
vt 0.760837 0.826144
vt 0.419564 0.056474
vt 0.388169 0.062717
vt 0.361556 0.080502
vt 0.343770 0.107115
vt 0.337527 0.138511
vt 0.343770 0.169906
vt 0.361556 0.196519
vt 0.388169 0.214305
vt 0.419564 0.220548
vt 0.419564 0.329931
vt 0.388169 0.336174
vt 0.361556 0.353959
vt 0.343770 0.380572
vt 0.337527 0.411968
vt 0.343770 0.443363
vt 0.361556 0.469976
vt 0.388169 0.487762
vt 0.419564 0.494005
vt 0.282836 0.548696
vt 0.282836 0.001782
vt 0.556293 0.548696
vt 0.450960 0.487762
vt 0.477573 0.469976
vt 0.495358 0.443363
vt 0.501601 0.411968
vt 0.495358 0.380572
vt 0.477573 0.353959
vt 0.450960 0.336174
vt 0.450960 0.214305
vt 0.477573 0.196519
vt 0.495358 0.169906
vt 0.501601 0.138511
vt 0.495358 0.107115
vt 0.477573 0.080502
vt 0.450960 0.062717
vt 0.556293 0.001782
vt 0.128555 0.628482
vt 0.183246 0.628482
vt 0.183246 0.659877
vt 0.128555 0.659877
vt 0.441628 0.634725
vt 0.441628 0.552687
vt 0.473023 0.558931
vt 0.128555 0.597086
vt 0.183246 0.597086
vt 0.183246 0.686490
vt 0.128555 0.686490
vt 0.499636 0.576716
vt 0.410232 0.558931
vt 0.128555 0.570474
vt 0.183246 0.570474
vt 0.183246 0.704276
vt 0.128555 0.704276
vt 0.517422 0.603329
vt 0.383619 0.576716
vt 0.128555 0.552688
vt 0.183246 0.552688
vt 0.119124 0.708267
vt 0.173815 0.708267
vt 0.173815 0.739663
vt 0.119124 0.739663
vt 0.523665 0.634725
vt 0.365833 0.603329
vt 0.610381 0.752148
vt 0.555689 0.752148
vt 0.555689 0.720753
vt 0.610381 0.720753
vt 0.173815 0.771058
vt 0.119124 0.771058
vt 0.517422 0.666120
vt 0.359590 0.634725
vt 0.610381 0.783543
vt 0.555689 0.783543
vt 0.173815 0.797671
vt 0.119124 0.797671
vt 0.499636 0.692733
vt 0.365833 0.666120
vt 0.181490 0.810157
vt 0.236182 0.810157
vt 0.236182 0.827943
vt 0.181490 0.827943
vt 0.173815 0.815457
vt 0.119124 0.815457
vt 0.473023 0.710519
vt 0.383619 0.692733
vt 0.181490 0.783544
vt 0.236182 0.783544
vt 0.181490 0.720753
vt 0.236182 0.720753
vt 0.236182 0.752149
vt 0.181490 0.752149
vt 0.441628 0.716762
vt 0.410232 0.710519
vt 0.067728 0.628482
vt 0.122419 0.628482
vt 0.122419 0.659877
vt 0.067728 0.659877
vt 0.271418 0.634725
vt 0.353455 0.634725
vt 0.347212 0.666120
vt 0.067728 0.597086
vt 0.122419 0.597086
vt 0.122419 0.686490
vt 0.067728 0.686490
vt 0.329426 0.692733
vt 0.347212 0.603329
vt 0.067728 0.570474
vt 0.122419 0.570474
vt 0.122419 0.704276
vt 0.067728 0.704276
vt 0.302814 0.710519
vt 0.329426 0.576716
vt 0.067728 0.552688
vt 0.122419 0.552688
vt 0.243857 0.720753
vt 0.298548 0.720753
vt 0.298548 0.752149
vt 0.243857 0.752149
vt 0.271418 0.716762
vt 0.302814 0.558931
vt 0.672747 0.861531
vt 0.618056 0.861531
vt 0.618056 0.830135
vt 0.672747 0.830135
vt 0.298548 0.783544
vt 0.243857 0.783544
vt 0.240023 0.710519
vt 0.271418 0.552688
vt 0.672747 0.892926
vt 0.618056 0.892926
vt 0.298548 0.810157
vt 0.243857 0.810157
vt 0.213410 0.692733
vt 0.240023 0.558931
vt 0.306223 0.810157
vt 0.360915 0.810157
vt 0.360915 0.827943
vt 0.306223 0.827943
vt 0.298548 0.827943
vt 0.243857 0.827943
vt 0.195624 0.666120
vt 0.213410 0.576716
vt 0.306223 0.783544
vt 0.360915 0.783544
vt 0.306223 0.720753
vt 0.360915 0.720753
vt 0.360915 0.752149
vt 0.306223 0.752149
vt 0.189381 0.634725
vt 0.195624 0.603329
vn 0.000000 0.000000 -1.000000
vn -1.000000 0.000000 0.000000
vn 0.000000 -0.000000 1.000000
vn 1.000000 0.000000 0.000000
vn 0.000000 -1.000000 -0.000000
vn 0.000000 1.000000 0.000000
vn 0.923900 -0.000000 -0.382700
vn 0.923900 0.000000 0.382700
vn 0.707100 0.000000 -0.707100
vn 0.707100 0.000000 0.707100
vn 0.382700 0.000000 -0.923900
vn 0.382700 -0.000000 0.923900
vn -0.382700 0.000000 -0.923900
vn -0.382700 -0.000000 0.923900
vn -0.707100 0.000000 -0.707100
vn -0.707100 -0.000000 0.707100
vn -0.923900 0.000000 -0.382700
vn -0.923900 -0.000000 0.382700
s off
f 21/1/1 36/2/1 37/3/1 38/4/1
f 19/5/2 21/6/2 38/7/2 39/8/2
f 20/9/3 19/10/3 39/11/3 40/12/3
f 36/13/4 20/14/4 40/15/4 37/16/4
f 37/16/5 40/12/5 39/8/5 38/4/5
s 1
f 1/17/6 2/18/6 3/19/6 4/20/6 5/21/6 6/22/6 7/23/6 8/24/6 9/25/6 10/26/6 11/27/6 12/28/6 13/29/6 14/30/6 15/31/6 16/32/6 17/33/6 18/34/6 19/35/6 20/36/6
f 21/37/6 19/35/6 18/34/6 22/38/6 23/39/6 24/40/6 25/41/6 26/42/6 27/43/6 28/44/6 10/26/6 9/25/6 29/45/6 30/46/6 31/47/6 32/48/6 33/49/6 34/50/6 35/51/6 1/17/6 20/36/6 36/52/6
f 41/53/4 1/54/4 35/55/7 42/56/7
f 43/57/6 41/58/6 42/59/6
f 44/60/8 2/61/8 1/54/4 41/53/4
f 42/56/7 35/55/7 34/62/9 45/63/9
f 43/57/6 42/59/6 45/64/6
f 43/57/6 44/65/6 41/58/6
f 46/66/10 3/67/10 2/61/8 44/60/8
f 45/63/9 34/62/9 33/68/11 47/69/11
f 43/57/6 45/64/6 47/70/6
f 43/57/6 46/71/6 44/65/6
f 48/72/12 4/73/12 3/67/10 46/66/10
f 47/74/11 33/75/11 32/76/1 49/77/1
f 43/57/6 47/70/6 49/78/6
f 43/57/6 48/79/6 46/71/6
f 50/80/3 5/81/3 4/82/12 48/83/12
f 49/77/1 32/76/1 31/84/13 51/85/13
f 43/57/6 49/78/6 51/86/6
f 43/57/6 50/87/6 48/79/6
f 52/88/14 6/89/14 5/81/3 50/80/3
f 51/85/13 31/84/13 30/90/15 53/91/15
f 43/57/6 51/86/6 53/92/6
f 43/57/6 52/93/6 50/87/6
f 54/94/16 7/95/16 6/96/14 52/97/14
f 53/91/15 30/90/15 29/98/17 55/99/17
f 43/57/6 53/92/6 55/100/6
f 43/57/6 54/101/6 52/93/6
f 56/102/18 8/103/18 7/95/16 54/94/16
f 55/104/17 29/105/17 9/106/2 57/107/2
f 43/57/6 55/100/6 57/108/6
f 43/57/6 56/109/6 54/101/6
f 57/107/2 9/106/2 8/103/18 56/102/18
f 43/57/6 57/108/6 56/109/6
f 58/110/4 10/111/4 28/112/7 59/113/7
f 60/114/6 58/115/6 59/116/6
f 61/117/8 11/118/8 10/111/4 58/110/4
f 59/113/7 28/112/7 27/119/9 62/120/9
f 60/114/6 59/116/6 62/121/6
f 60/114/6 61/122/6 58/115/6
f 63/123/10 12/124/10 11/118/8 61/117/8
f 62/120/9 27/119/9 26/125/11 64/126/11
f 60/114/6 62/121/6 64/127/6
f 60/114/6 63/128/6 61/122/6
f 65/129/12 13/130/12 12/124/10 63/123/10
f 64/131/11 26/132/11 25/133/1 66/134/1
f 60/114/6 64/127/6 66/135/6
f 60/114/6 65/136/6 63/128/6
f 67/137/3 14/138/3 13/139/12 65/140/12
f 66/134/1 25/133/1 24/141/13 68/142/13
f 60/114/6 66/135/6 68/143/6
f 60/114/6 67/144/6 65/136/6
f 69/145/14 15/146/14 14/138/3 67/137/3
f 68/142/13 24/141/13 23/147/15 70/148/15
f 60/114/6 68/143/6 70/149/6
f 60/114/6 69/150/6 67/144/6
f 71/151/16 16/152/16 15/153/14 69/154/14
f 70/148/15 23/147/15 22/155/17 72/156/17
f 60/114/6 70/149/6 72/157/6
f 60/114/6 71/158/6 69/150/6
f 73/159/18 17/160/18 16/152/16 71/151/16
f 72/161/17 22/162/17 18/163/2 74/164/2
f 60/114/6 72/157/6 74/165/6
f 60/114/6 73/166/6 71/158/6
f 74/164/2 18/163/2 17/160/18 73/159/18
f 60/114/6 74/165/6 73/166/6
