# Blender v2.74 (sub 0) OBJ File: ''
# www.blender.org
o roundplatewithaxleholetype1
v 16.000000 -8.000002 9.999999
v 15.543205 -8.000001 7.703902
v 15.543400 -12.000001 7.703798
v 16.000000 -12.000002 9.999998
v 14.242661 -8.000001 5.757359
v 14.242599 -12.000001 5.757398
v 12.296101 -8.000000 4.456782
v 12.296200 -12.000000 4.456598
v 10.000000 -8.000000 3.999999
v 10.000000 -12.000000 3.999998
v 7.703903 -8.000000 4.456794
v 7.703800 -12.000000 4.456598
v 5.757360 -8.000001 5.757339
v 5.757400 -12.000001 5.757398
v 4.456784 -8.000001 7.703898
v 4.456600 -12.000001 7.703798
v 4.000000 -8.000002 9.999999
v 4.000000 -12.000002 9.999998
v 4.456795 -8.000002 12.296096
v 4.456600 -12.000002 12.296198
v 5.757340 -8.000002 14.242638
v 5.757400 -12.000002 14.242597
v 7.703900 -8.000002 15.543215
v 7.703800 -12.000002 15.543398
v 10.000000 -8.000002 15.999998
v 10.000000 -12.000002 15.999998
v 12.296097 -8.000002 15.543203
v 12.296200 -12.000002 15.543398
v 14.242640 -8.000002 14.242661
v 14.242599 -12.000002 14.242597
v 15.543216 -8.000002 12.296100
v 15.543400 -12.000002 12.296198
v 18.000000 -8.000002 9.999999
v 18.000000 -12.000002 9.999998
v 17.391201 -12.000001 6.938398
v 17.391201 -8.000001 6.938398
v 15.656799 -12.000000 4.343198
v 15.656799 -8.000000 4.343199
v 13.061600 -12.000000 2.608798
v 13.061600 -8.000000 2.608799
v 10.000000 -12.000000 1.999998
v 10.000000 -8.000000 1.999999
v 6.938400 -12.000000 2.608798
v 6.938400 -8.000000 2.608799
v 4.343200 -12.000000 4.343198
v 4.343200 -8.000000 4.343199
v 2.608800 -12.000001 6.938398
v 2.608800 -8.000001 6.938398
v 2.000000 -12.000002 9.999998
v 2.000000 -8.000002 9.999999
v 2.608800 -12.000002 13.061598
v 2.608800 -8.000002 13.061599
v 4.343200 -12.000002 15.656797
v 4.343200 -8.000002 15.656797
v 6.938400 -12.000003 17.391199
v 6.938400 -8.000003 17.391199
v 10.000000 -12.000003 17.999998
v 10.000000 -8.000003 18.000000
v 13.061600 -12.000003 17.391199
v 13.061600 -8.000003 17.391199
v 15.656799 -12.000002 15.656797
v 15.656799 -8.000002 15.656797
v 17.391201 -12.000002 13.061598
v 17.391201 -8.000002 13.061599
v 18.000000 -8.000000 1.999999
v 2.000000 -8.000000 1.999999
v 2.000000 -8.000003 18.000000
v 18.000000 -8.000003 18.000000
v 4.000000 -4.000001 9.999999
v 4.398000 -8.000001 7.999999
v 4.398000 -4.000001 8.000000
v 8.000000 -8.000001 7.999999
v 8.000000 -4.000001 8.000000
v 8.000000 -8.000000 4.397998
v 8.000000 -4.000000 4.397999
v 10.000000 -4.000000 4.000000
v 16.000000 -4.000001 9.999999
v 15.602000 -4.000001 8.000000
v 15.602000 -8.000001 7.999999
v 12.000000 -4.000001 8.000000
v 12.000000 -8.000001 7.999999
v 12.000000 -4.000000 4.397999
v 12.000000 -8.000000 4.397998
v 4.398000 -4.000002 11.999999
v 4.398000 -8.000002 11.999999
v 8.000000 -4.000002 11.999999
v 8.000000 -8.000002 11.999999
v 8.000000 -4.000002 15.601999
v 8.000000 -8.000002 15.601999
v 10.000000 -4.000002 16.000000
v 15.602000 -8.000002 11.999999
v 15.602000 -4.000002 11.999999
v 12.000000 -8.000002 11.999999
v 12.000000 -4.000002 11.999999
v 12.000000 -8.000002 15.601999
v 12.000000 -4.000002 15.601999
v 15.543217 -4.000001 7.703899
v 12.296097 -4.000000 4.456795
v 4.456795 -4.000001 7.703903
v 7.703900 -4.000000 4.456783
v 15.543205 -4.000002 12.296096
v 12.296100 -4.000002 15.543217
v 4.456784 -4.000002 12.296099
v 7.703904 -4.000002 15.543205
v 14.242640 -4.000001 5.757339
v 5.757340 -4.000001 5.757360
v 5.757360 -4.000002 14.242661
v 14.242661 -4.000002 14.242640
v 5.407600 -4.000000 -1.086801
v 10.000000 -4.000000 -2.000001
v 1.514800 -4.000000 1.514799
v -1.086800 -4.000001 5.407599
v -2.000000 -4.000001 9.999999
v -1.086800 -4.000002 14.592400
v 1.514800 -4.000003 18.485199
v 5.407600 -4.000003 21.086800
v 10.000000 -4.000003 22.000000
v 14.592400 -4.000003 21.086800
v 18.485199 -4.000003 18.485199
v 21.086800 -4.000002 14.592400
v 22.000000 -4.000001 9.999999
v 21.086800 -4.000001 5.407599
v 18.485199 -4.000000 1.514799
v 14.592400 -4.000000 -1.086801
v 2.346000 -3.999998 -8.478002
v 6.173000 -4.000000 0.760999
v 10.000000 -4.000000 -0.000001
v 10.000000 -3.999998 -10.000001
v -4.142000 -3.999999 -4.142001
v 2.929000 -4.000000 2.928999
v -8.478002 -4.000000 2.345999
v 0.761000 -4.000001 6.172999
v -10.000001 -4.000001 9.999999
v 0.000000 -4.000001 9.999999
v -8.478002 -4.000003 17.653999
v 0.761000 -4.000002 13.826999
v -4.142000 -4.000004 24.141998
v 2.929000 -4.000003 17.070999
v 2.346000 -4.000005 28.478001
v 6.173000 -4.000003 19.238998
v 10.000000 -4.000005 30.000000
v 10.000000 -4.000003 20.000000
v 17.653999 -4.000005 28.478001
v 13.827000 -4.000003 19.238998
v 24.142000 -4.000004 24.141998
v 17.070999 -4.000003 17.070999
v 28.478001 -4.000003 17.653999
v 19.239000 -4.000002 13.826999
v 30.000000 -4.000001 9.999999
v 20.000000 -4.000001 9.999999
v 28.478001 -4.000000 2.345999
v 19.239000 -4.000001 6.172999
v 24.142000 -3.999999 -4.142001
v 17.070999 -4.000000 2.928999
v 17.653999 -3.999998 -8.478002
v 13.827000 -4.000000 0.760999
v 30.000263 -8.000002 9.999937
v 28.477707 -8.000000 2.346219
v 24.141001 -7.999999 -4.141002
v 17.653801 -7.999999 -8.477735
v 9.999938 -7.999998 -10.000264
v 2.346220 -7.999999 -8.477708
v -4.141002 -7.999999 -4.141002
v -8.477735 -8.000000 2.346199
v -10.000264 -8.000002 10.000061
v -8.477708 -8.000003 17.653778
v -4.141002 -8.000004 24.140999
v 2.346200 -8.000005 28.477734
v 10.000062 -8.000005 30.000263
v 17.653780 -8.000005 28.477707
v 24.141001 -8.000004 24.140999
v 28.477734 -8.000003 17.653799
v 17.703800 -3.999999 -5.543401
v 17.703800 0.000001 -5.543400
v 20.000000 0.000001 -6.000000
v 20.000000 -3.999999 -6.000001
v 15.757401 -3.999999 -4.242600
v 15.757401 0.000001 -4.242599
v 14.456600 -4.000000 -2.296201
v 14.456600 0.000000 -2.296200
v 14.000000 -4.000000 -0.000001
v 14.000000 0.000000 0.000000
v 14.456600 -4.000000 2.296199
v 14.456600 0.000000 2.296200
v 15.757401 -4.000000 4.242599
v 15.757401 -0.000000 4.242600
v 17.703800 -4.000001 5.543399
v 17.703800 -0.000000 5.543400
v 20.000000 -4.000001 5.999999
v 20.000000 -0.000001 6.000000
v 22.296200 -4.000001 5.543399
v 22.296200 -0.000000 5.543400
v 24.242599 -4.000000 4.242599
v 24.242599 -0.000000 4.242600
v 25.543400 -4.000000 2.296199
v 25.543400 0.000000 2.296200
v 26.000000 -4.000000 -0.000001
v 26.000000 0.000000 0.000000
v 20.000000 0.000000 0.000000
v 25.614750 0.000000 -1.939850
v 24.142000 0.000001 -4.142000
v 21.939350 0.000001 -5.614750
v 25.614500 -4.000000 -1.939701
v 21.938700 -3.999999 -5.614501
v -5.543400 -4.000000 2.296199
v -5.543400 0.000000 2.296200
v -6.000000 0.000000 0.000000
v -6.000000 -4.000000 -0.000001
v -4.242600 -4.000000 4.242599
v -4.242600 -0.000000 4.242600
v -2.296200 -4.000001 5.543399
v -2.296200 -0.000000 5.543400
v 0.000000 -4.000001 5.999999
v 0.000000 -0.000001 6.000000
v 2.296200 -4.000001 5.543399
v 2.296200 -0.000000 5.543400
v 4.242600 -4.000000 4.242599
v 4.242600 -0.000000 4.242600
v 5.543400 -4.000000 2.296199
v 5.543400 0.000000 2.296200
v 6.000000 -4.000000 -0.000001
v 6.000000 0.000000 0.000000
v 5.543400 -4.000000 -2.296201
v 5.543400 0.000000 -2.296200
v 4.242600 -3.999999 -4.242600
v 4.242600 0.000001 -4.242599
v 2.296200 -3.999999 -5.543401
v 2.296200 0.000001 -5.543400
v 0.000000 -3.999999 -6.000001
v 0.000000 0.000001 -6.000000
v 0.000000 0.000000 0.000000
v -1.939850 0.000001 -5.614750
v -4.142000 0.000001 -4.142000
v -5.614750 0.000000 -1.939350
v -1.939700 -3.999999 -5.614501
v -5.614500 -4.000000 -1.938701
v 25.543400 -4.000003 17.703800
v 25.543400 -0.000003 17.703800
v 26.000000 -0.000003 20.000000
v 26.000000 -4.000003 20.000000
v 24.242599 -4.000002 15.757401
v 24.242599 -0.000002 15.757401
v 22.296200 -4.000002 14.456600
v 22.296200 -0.000002 14.456600
v 20.000000 -4.000002 14.000000
v 20.000000 -0.000002 14.000000
v 17.703800 -4.000002 14.456600
v 17.703800 -0.000002 14.456600
v 15.757401 -4.000002 15.757401
v 15.757401 -0.000002 15.757401
v 14.456600 -4.000003 17.703800
v 14.456600 -0.000003 17.703800
v 14.000000 -4.000003 20.000000
v 14.000000 -0.000003 20.000000
v 14.456600 -4.000003 22.296200
v 14.456600 -0.000003 22.296200
v 15.757401 -4.000004 24.242599
v 15.757401 -0.000004 24.242599
v 17.703800 -4.000004 25.543400
v 17.703800 -0.000004 25.543400
v 20.000000 -4.000004 26.000000
v 20.000000 -0.000004 26.000000
v 20.000000 -0.000003 20.000000
v 21.939850 -0.000004 25.614750
v 24.142000 -0.000004 24.142000
v 25.614750 -0.000003 21.939350
v 21.939701 -4.000004 25.614498
v 25.614500 -4.000003 21.938698
v 2.296200 -4.000004 25.543400
v 2.296200 -0.000004 25.543400
v 0.000000 -0.000004 26.000000
v 0.000000 -4.000004 26.000000
v 4.242600 -4.000004 24.242599
v 4.242600 -0.000004 24.242599
v 5.543400 -4.000003 22.296200
v 5.543400 -0.000003 22.296200
v 6.000000 -4.000003 20.000000
v 6.000000 -0.000003 20.000000
v 5.543400 -4.000003 17.703800
v 5.543400 -0.000003 17.703800
v 4.242600 -4.000002 15.757401
v 4.242600 -0.000002 15.757401
v 2.296200 -4.000002 14.456600
v 2.296200 -0.000002 14.456600
v 0.000000 -4.000002 14.000000
v 0.000000 -0.000002 14.000000
v -2.296200 -4.000002 14.456600
v -2.296200 -0.000002 14.456600
v -4.242600 -4.000002 15.757401
v -4.242600 -0.000002 15.757401
v -5.543400 -4.000003 17.703800
v -5.543400 -0.000003 17.703800
v -6.000000 -4.000003 20.000000
v -6.000000 -0.000003 20.000000
v 0.000000 -0.000003 20.000000
v -5.614750 -0.000003 21.939850
v -4.142000 -0.000004 24.142000
v -1.939350 -0.000004 25.614750
v -5.614500 -4.000003 21.939701
v -1.938700 -4.000004 25.614498
v 21.360001 -8.000004 26.000000
v -1.360000 -8.000004 26.000000
v -6.000000 -8.000004 21.360001
v 21.360001 -12.000004 25.999996
v -1.360000 -12.000004 25.999996
v 17.653641 -12.000004 28.477516
v 2.346300 -12.000004 28.477596
v 10.000124 -12.000005 30.000523
v 26.000000 -8.000000 -1.360001
v 26.000000 -8.000004 21.360001
v 26.000000 -12.000000 -1.360003
v 26.000000 -12.000004 21.359999
v 28.477520 -12.000000 2.346358
v 28.477600 -12.000003 17.653698
v 30.000526 -12.000002 9.999874
v -1.360000 -7.999999 -6.000001
v 21.360001 -7.999999 -6.000001
v -1.360000 -11.999999 -6.000002
v 21.360001 -11.999999 -6.000002
v 2.346360 -11.999998 -8.477523
v 17.653700 -11.999998 -8.477603
v 9.999876 -11.999998 -10.000529
v -6.000000 -8.000000 -1.360001
v -6.000000 -12.000004 21.359999
v -6.000000 -12.000000 -1.360003
v -8.477521 -12.000003 17.653639
v -8.477601 -12.000000 2.346298
v -10.000527 -12.000002 10.000122
vn 0.000000 -0.000000 1.000000
vn 1.000000 0.000000 0.000000
vn -1.000000 0.000000 0.000000
vn 0.000000 0.000000 -1.000000
vn -0.923900 -0.000000 0.382700
vn -0.707100 -0.000000 0.707100
vn -0.382700 -0.000000 0.923900
vn 0.382700 -0.000000 0.923900
vn 0.707100 -0.000000 0.707100
vn 0.923900 -0.000000 0.382700
vn 0.923900 -0.000000 -0.382700
vn 0.707100 -0.000000 -0.707100
vn 0.382700 -0.000000 -0.923900
vn -0.382700 -0.000000 -0.923900
vn -0.707100 -0.000000 -0.707100
vn -0.923900 -0.000000 -0.382700
vn 0.000000 -1.000000 0.000000
vn 0.980800 -0.000000 0.195200
vn 0.195200 -0.000000 0.980800
vn -0.980800 0.000000 0.195200
vn -0.195200 -0.000000 0.980800
vn 0.980800 0.000000 -0.195200
vn 0.195200 0.000000 -0.980800
vn -0.980800 0.000000 -0.195200
vn -0.195200 0.000000 -0.980800
vn 0.000000 1.000000 0.000000
vn 0.932700 -0.000100 -0.360600
vn 0.923900 -0.000100 -0.382700
vn 0.707100 -0.000200 -0.707100
vn 0.360600 -0.000100 -0.932700
vn 0.382700 -0.000100 -0.923900
vn -0.360600 -0.000100 -0.932700
vn -0.382700 -0.000100 -0.923900
vn -0.707100 -0.000200 -0.707100
vn -0.932700 -0.000100 -0.360600
vn -0.923900 -0.000100 -0.382700
vn -0.932700 -0.000100 0.360600
vn -0.923900 -0.000100 0.382700
vn -0.707100 -0.000200 0.707100
vn -0.360600 -0.000100 0.932700
vn -0.382700 -0.000100 0.923900
vn 0.360600 -0.000100 0.932700
vn 0.382700 -0.000100 0.923900
vn 0.707100 -0.000200 0.707100
vn 0.932700 -0.000100 0.360600
vn 0.923900 -0.000100 0.382700
vn -0.016800 -0.000000 -0.999900
vn 0.999900 -0.000000 0.016800
vn 0.912400 -0.000000 -0.409300
vn 0.707100 -0.000100 -0.707200
vn 0.409300 -0.000100 -0.912400
vn -0.999900 -0.000000 0.016800
vn 0.016800 -0.000000 -0.999900
vn -0.409300 -0.000000 -0.912400
vn -0.707200 -0.000100 -0.707100
vn -0.912400 -0.000100 -0.409300
vn 0.999900 -0.000000 -0.016800
vn -0.016800 -0.000000 0.999900
vn 0.409300 -0.000000 0.912400
vn 0.707200 -0.000100 0.707100
vn 0.912400 -0.000100 0.409300
vn 0.016800 -0.000000 0.999900
vn -0.999900 -0.000000 -0.016800
vn -0.912400 -0.000000 0.409300
vn -0.707100 -0.000100 0.707200
vn -0.409300 -0.000100 0.912400
vn -0.332100 -0.000000 0.943200
vn 0.332200 -0.000000 0.943200
vn 0.555700 -0.000000 0.831400
vn -0.555800 -0.000000 0.831300
vn 0.943200 -0.000000 0.332100
vn 0.943200 -0.000000 -0.332200
vn 0.831400 -0.000000 -0.555700
vn 0.831300 -0.000000 0.555800
vn 0.332100 -0.000000 -0.943200
vn -0.332200 -0.000000 -0.943200
vn -0.555700 -0.000000 -0.831400
vn 0.555800 -0.000000 -0.831300
vn -0.943200 -0.000000 -0.332100
vn -0.943200 -0.000000 0.332200
vn -0.831400 -0.000000 0.555700
vn -0.831300 -0.000000 -0.555800
s off
f 71//1 70//1 72//1 73//1
f 73//2 72//2 74//2 75//2
f 78//1 80//1 81//1 79//1
f 80//3 82//3 83//3 81//3
f 84//4 86//4 87//4 85//4
f 86//2 88//2 89//2 87//2
f 92//4 91//4 93//4 94//4
f 94//3 93//3 95//3 96//3
f 302//4 301//4 304//4 305//4
f 310//3 309//3 311//3 312//3
f 317//1 316//1 318//1 319//1
f 323//2 303//2 324//2 325//2
s 1
f 1//3 2//5 3//5 4//3
f 2//5 5//6 6//6 3//5
f 5//6 7//7 8//7 6//6
f 7//7 9//1 10//1 8//7
f 9//1 11//8 12//8 10//1
f 11//8 13//9 14//9 12//8
f 13//9 15//10 16//10 14//9
f 15//10 17//2 18//2 16//10
f 17//2 19//11 20//11 18//2
f 19//11 21//12 22//12 20//11
f 21//12 23//13 24//13 22//12
f 23//13 25//4 26//4 24//13
f 25//4 27//14 28//14 26//4
f 27//14 29//15 30//15 28//14
f 29//15 31//16 32//16 30//15
f 31//16 1//3 4//3 32//16
f 33//2 34//2 35//11 36//11
f 36//11 35//11 37//12 38//12
f 38//12 37//12 39//13 40//13
f 40//13 39//13 41//4 42//4
f 42//4 41//4 43//14 44//14
f 44//14 43//14 45//15 46//15
f 46//15 45//15 47//16 48//16
f 48//16 47//16 49//3 50//3
f 50//3 49//3 51//5 52//5
f 52//5 51//5 53//6 54//6
f 54//6 53//6 55//7 56//7
f 56//7 55//7 57//1 58//1
f 58//1 57//1 59//8 60//8
f 60//8 59//8 61//9 62//9
f 62//9 61//9 63//10 64//10
f 64//10 63//10 34//2 33//2
f 43//17 41//17 10//17 12//17
f 45//17 43//17 12//17 14//17
f 47//17 45//17 14//17 16//17
f 49//17 47//17 16//17 18//17
f 51//17 49//17 18//17 20//17
f 53//17 51//17 20//17 22//17
f 55//17 53//17 22//17 24//17
f 57//17 55//17 24//17 26//17
f 59//17 57//17 26//17 28//17
f 61//17 59//17 28//17 30//17
f 63//17 61//17 30//17 32//17
f 34//17 63//17 32//17 4//17
f 35//17 34//17 4//17 3//17
f 37//17 35//17 3//17 6//17
f 39//17 37//17 6//17 8//17
f 41//17 39//17 8//17 10//17
f 36//17 65//17 33//17
f 38//17 65//17 36//17
f 40//17 65//17 38//17
f 42//17 65//17 40//17
f 44//17 66//17 42//17
f 46//17 66//17 44//17
f 48//17 66//17 46//17
f 50//17 66//17 48//17
f 52//17 67//17 50//17
f 54//17 67//17 52//17
f 56//17 67//17 54//17
f 58//17 67//17 56//17
f 60//17 68//17 58//17
f 62//17 68//17 60//17
f 64//17 68//17 62//17
f 33//17 68//17 64//17
f 69//2 17//2 70//18 71//18
f 75//19 74//19 9//1 76//1
f 77//3 78//20 79//20 1//3
f 82//21 76//1 9//1 83//21
f 69//2 84//22 85//22 17//2
f 88//23 90//4 25//4 89//23
f 77//3 1//3 91//24 92//24
f 96//25 95//25 25//4 90//4
f 97//26 80//26 78//26
f 82//26 80//26 98//26
f 73//26 99//26 71//26
f 73//26 75//26 100//26
f 94//26 101//26 92//26
f 94//26 96//26 102//26
f 103//26 86//26 84//26
f 88//26 86//26 104//26
f 98//26 80//26 97//26
f 98//26 97//26 105//26
f 99//26 73//26 100//26
f 99//26 100//26 106//26
f 104//26 86//26 103//26
f 104//26 103//26 107//26
f 101//26 94//26 102//26
f 101//26 102//26 108//26
f 7//17 81//17 83//17
f 79//17 81//17 2//17
f 93//17 27//17 95//17
f 93//17 91//17 31//17
f 72//17 11//17 74//17
f 72//17 70//17 15//17
f 23//17 87//17 89//17
f 85//17 87//17 19//17
f 2//17 81//17 7//17
f 2//17 7//17 5//17
f 27//17 93//17 31//17
f 27//17 31//17 29//17
f 19//17 87//17 23//17
f 19//17 23//17 21//17
f 11//17 72//17 15//17
f 11//17 15//17 13//17
f 109//26 100//26 76//26 110//26
f 111//26 106//26 100//26 109//26
f 112//26 99//26 106//26 111//26
f 113//26 69//26 99//26 112//26
f 114//26 103//26 69//26 113//26
f 115//26 107//26 103//26 114//26
f 116//26 104//26 107//26 115//26
f 117//26 90//26 104//26 116//26
f 118//26 102//26 90//26 117//26
f 119//26 108//26 102//26 118//26
f 120//26 101//26 108//26 119//26
f 121//26 77//26 101//26 120//26
f 122//26 97//26 77//26 121//26
f 123//26 105//26 97//26 122//26
f 124//26 98//26 105//26 123//26
f 110//26 76//26 98//26 124//26
f 125//26 126//26 127//26 128//26
f 129//26 130//26 126//26 125//26
f 131//26 132//26 130//26 129//26
f 133//26 134//26 132//26 131//26
f 135//26 136//26 134//26 133//26
f 137//26 138//26 136//26 135//26
f 139//26 140//26 138//26 137//26
f 141//26 142//26 140//26 139//26
f 143//26 144//26 142//26 141//26
f 145//26 146//26 144//26 143//26
f 147//26 148//26 146//26 145//26
f 149//26 150//26 148//26 147//26
f 151//26 152//26 150//26 149//26
f 153//26 154//26 152//26 151//26
f 155//26 156//26 154//26 153//26
f 128//26 127//26 156//26 155//26
f 157//2 158//27 151//28 149//2
f 158//27 159//29 153//29 151//28
f 159//29 160//30 155//31 153//29
f 160//30 161//4 128//4 155//31
f 161//4 162//32 125//33 128//4
f 162//32 163//34 129//34 125//33
f 163//34 164//35 131//36 129//34
f 164//35 165//3 133//3 131//36
f 165//3 166//37 135//38 133//3
f 166//37 167//39 137//39 135//38
f 167//39 168//40 139//41 137//39
f 168//40 169//1 141//1 139//41
f 169//1 170//42 143//43 141//1
f 170//42 171//44 145//44 143//43
f 171//44 172//45 147//46 145//44
f 172//45 157//2 149//2 147//46
f 173//14 174//14 175//47 176//47
f 177//15 178//15 174//14 173//14
f 179//16 180//16 178//15 177//15
f 181//3 182//3 180//16 179//16
f 183//5 184//5 182//3 181//3
f 185//6 186//6 184//5 183//5
f 187//7 188//7 186//6 185//6
f 189//1 190//1 188//7 187//7
f 191//8 192//8 190//1 189//1
f 193//9 194//9 192//8 191//8
f 195//10 196//10 194//9 193//9
f 197//48 198//48 196//10 195//10
f 199//26 175//26 174//26
f 199//26 174//26 178//26
f 199//26 178//26 180//26
f 199//26 180//26 182//26
f 199//26 182//26 184//26
f 199//26 184//26 186//26
f 199//26 186//26 188//26
f 199//26 188//26 190//26
f 199//26 190//26 192//26
f 199//26 192//26 194//26
f 199//26 194//26 196//26
f 199//26 196//26 198//26
f 198//26 200//26 199//26
f 200//26 201//26 199//26
f 201//26 202//26 199//26
f 202//26 175//26 199//26
f 197//48 203//49 200//49 198//48
f 203//49 153//50 201//50 200//49
f 153//50 204//51 202//51 201//50
f 204//51 176//47 175//47 202//51
f 205//5 206//5 207//52 208//52
f 209//6 210//6 206//5 205//5
f 211//7 212//7 210//6 209//6
f 213//1 214//1 212//7 211//7
f 215//8 216//8 214//1 213//1
f 217//9 218//9 216//8 215//8
f 219//10 220//10 218//9 217//9
f 221//2 222//2 220//10 219//10
f 223//11 224//11 222//2 221//2
f 225//12 226//12 224//11 223//11
f 227//13 228//13 226//12 225//12
f 229//53 230//53 228//13 227//13
f 231//26 207//26 206//26
f 231//26 206//26 210//26
f 231//26 210//26 212//26
f 231//26 212//26 214//26
f 231//26 214//26 216//26
f 231//26 216//26 218//26
f 231//26 218//26 220//26
f 231//26 220//26 222//26
f 231//26 222//26 224//26
f 231//26 224//26 226//26
f 231//26 226//26 228//26
f 231//26 228//26 230//26
f 230//26 232//26 231//26
f 232//26 233//26 231//26
f 233//26 234//26 231//26
f 234//26 207//26 231//26
f 229//53 235//54 232//54 230//53
f 235//54 129//55 233//55 232//54
f 129//55 236//56 234//56 233//55
f 236//56 208//52 207//52 234//56
f 237//11 238//11 239//57 240//57
f 241//12 242//12 238//11 237//11
f 243//13 244//13 242//12 241//12
f 245//4 246//4 244//13 243//13
f 247//14 248//14 246//4 245//4
f 249//15 250//15 248//14 247//14
f 251//16 252//16 250//15 249//15
f 253//3 254//3 252//16 251//16
f 255//5 256//5 254//3 253//3
f 257//6 258//6 256//5 255//5
f 259//7 260//7 258//6 257//6
f 261//58 262//58 260//7 259//7
f 263//26 239//26 238//26
f 263//26 238//26 242//26
f 263//26 242//26 244//26
f 263//26 244//26 246//26
f 263//26 246//26 248//26
f 263//26 248//26 250//26
f 263//26 250//26 252//26
f 263//26 252//26 254//26
f 263//26 254//26 256//26
f 263//26 256//26 258//26
f 263//26 258//26 260//26
f 263//26 260//26 262//26
f 262//26 264//26 263//26
f 264//26 265//26 263//26
f 265//26 266//26 263//26
f 266//26 239//26 263//26
f 261//58 267//59 264//59 262//58
f 267//59 145//60 265//60 264//59
f 145//60 268//61 266//61 265//60
f 268//61 240//57 239//57 266//61
f 269//8 270//8 271//62 272//62
f 273//9 274//9 270//8 269//8
f 275//10 276//10 274//9 273//9
f 277//2 278//2 276//10 275//10
f 279//11 280//11 278//2 277//2
f 281//12 282//12 280//11 279//11
f 283//13 284//13 282//12 281//12
f 285//4 286//4 284//13 283//13
f 287//14 288//14 286//4 285//4
f 289//15 290//15 288//14 287//14
f 291//16 292//16 290//15 289//15
f 293//63 294//63 292//16 291//16
f 295//26 271//26 270//26
f 295//26 270//26 274//26
f 295//26 274//26 276//26
f 295//26 276//26 278//26
f 295//26 278//26 280//26
f 295//26 280//26 282//26
f 295//26 282//26 284//26
f 295//26 284//26 286//26
f 295//26 286//26 288//26
f 295//26 288//26 290//26
f 295//26 290//26 292//26
f 295//26 292//26 294//26
f 294//26 296//26 295//26
f 296//26 297//26 295//26
f 297//26 298//26 295//26
f 298//26 271//26 295//26
f 293//63 299//64 296//64 294//63
f 299//64 137//65 297//65 296//64
f 137//65 300//66 298//66 297//65
f 300//66 272//62 271//62 298//66
f 68//17 301//17 302//17 67//17
f 302//17 167//17 303//17 67//17
f 306//17 307//17 305//17 304//17
f 306//17 308//17 307//17
f 308//1 169//1 168//40 307//67
f 306//68 170//42 169//1 308//1
f 170//42 306//68 304//69 301//69
f 307//67 168//40 302//70 305//70
f 65//17 309//17 310//17 68//17
f 310//17 171//17 301//17 68//17
f 313//17 314//17 312//17 311//17
f 313//17 315//17 314//17
f 315//2 157//2 172//45 314//71
f 313//72 158//27 157//2 315//2
f 158//27 313//72 311//73 309//73
f 314//71 172//45 310//74 312//74
f 66//17 316//17 317//17 65//17
f 317//17 159//17 309//17 65//17
f 320//17 321//17 319//17 318//17
f 320//17 322//17 321//17
f 322//4 161//4 160//30 321//75
f 320//76 162//32 161//4 322//4
f 162//32 320//76 318//77 316//77
f 321//75 160//30 317//78 319//78
f 67//17 303//17 323//17 66//17
f 323//17 163//17 316//17 66//17
f 326//17 327//17 325//17 324//17
f 326//17 328//17 327//17
f 328//3 165//3 164//35 327//79
f 326//80 166//37 165//3 328//3
f 166//37 326//80 324//81 303//81
f 327//79 164//35 323//82 325//82
